<?xml version="1.0" encoding="UTF-8" standalone="no"?>
<!DOCTYPE svg PUBLIC "-//W3C//DTD SVG 1.1//EN"
 "http://www.w3.org/Graphics/SVG/1.1/DTD/svg11.dtd">
<!-- Generated by graphviz version 2.40.1 (20161225.0304)
 -->
<!-- Title: %3 Pages: 1 -->
<svg width="478pt" height="454pt"
 viewBox="0.00 0.00 477.51 454.00" xmlns="http://www.w3.org/2000/svg" xmlns:xlink="http://www.w3.org/1999/xlink">
<g id="graph0" class="graph" transform="scale(1 1) rotate(0) translate(4 450)">
<title>%3</title>
<polygon fill="#ffffff" stroke="transparent" points="-4,4 -4,-450 473.5092,-450 473.5092,4 -4,4"/>
<!-- Position -->
<g id="node1" class="node">
<title>Position</title>
<g id="a_node1"><a xlink:href="http://www.emmc.info/emmc-csa/demo#DEMO_815f4935-7bcb-4b6c-85f0-e572024ece12" xlink:title="Position">
<ellipse fill="#ffffcc" stroke="#000000" cx="340.5525" cy="-234" rx="41.6819" ry="18"/>
<text text-anchor="middle" x="340.5525" y="-229.4" font-family="Times,serif" font-size="14.00" fill="#000000">Position</text>
</a>
</g>
</g>
<!-- Real -->
<g id="node7" class="node">
<title>Real</title>
<g id="a_node7"><a xlink:href="http://emmo.info/emmo/middle/math#EMMO_18d180e4_5e3e_42f7_820c_e08951223486" xlink:title="Real">
<ellipse fill="#ffc880" stroke="#ff0000" cx="340.5525" cy="-126" rx="28.35" ry="18"/>
<text text-anchor="middle" x="340.5525" y="-121.4" font-family="Times,serif" font-size="14.00" fill="#000000">Real</text>
</a>
</g>
</g>
<!-- Position&#45;&gt;Real -->
<g id="edge6" class="edge">
<title>Position&#45;&gt;Real</title>
<path fill="none" stroke="#ffa500" stroke-dasharray="5,2" d="M382.3035,-234.8675C410.9624,-232.8925 446.6921,-224.7111 463.2004,-198 471.6121,-184.3896 471.6121,-175.6104 463.2004,-162 446.0559,-134.2595 408.1799,-126.5045 379.0231,-124.9311"/>
<polygon fill="#ffa500" stroke="#ffa500" points="378.8358,-121.4235 368.7301,-124.6056 378.6145,-128.42 378.8358,-121.4235"/>
</g>
<!-- Length -->
<g id="node10" class="node">
<title>Length</title>
<g id="a_node10"><a xlink:href="http://emmo.info/emmo/middle/isq#EMMO_cd2cd0de_e0cc_4ef1_b27e_2e88db027bac" xlink:title="Length">
<ellipse fill="#ffffcc" stroke="#ff0000" cx="99.9522" cy="-207" rx="37.632" ry="18"/>
<text text-anchor="middle" x="99.9522" y="-202.4" font-family="Times,serif" font-size="14.00" fill="#000000">Length</text>
</a>
</g>
</g>
<!-- Position&#45;&gt;Length -->
<g id="edge5" class="edge">
<title>Position&#45;&gt;Length</title>
<path fill="none" stroke="#000000" d="M300.2814,-229.4808C257.9606,-224.7316 191.4564,-217.2685 146.8113,-212.2585"/>
<polygon fill="none" stroke="#000000" points="147.1261,-208.7719 136.7981,-211.1348 146.3454,-215.7283 147.1261,-208.7719"/>
</g>
<!-- LatticeVector -->
<g id="node2" class="node">
<title>LatticeVector</title>
<g id="a_node2"><a xlink:href="http://www.emmc.info/emmc-csa/demo#DEMO_82bfed1b-10f1-4abd-a687-2599b5fbe802" xlink:title="LatticeVector">
<ellipse fill="#ffffcc" stroke="#000000" cx="340.5525" cy="-180" rx="61.9317" ry="18"/>
<text text-anchor="middle" x="340.5525" y="-175.4" font-family="Times,serif" font-size="14.00" fill="#000000">LatticeVector</text>
</a>
</g>
</g>
<!-- LatticeVector&#45;&gt;Real -->
<g id="edge8" class="edge">
<title>LatticeVector&#45;&gt;Real</title>
<path fill="none" stroke="#ffa500" stroke-dasharray="5,2" d="M340.5525,-161.7902C340.5525,-159.3082 340.5525,-156.8262 340.5525,-154.3443"/>
<polygon fill="#ffa500" stroke="#ffa500" points="344.0526,-154.1406 340.5525,-144.1406 337.0526,-154.1407 344.0526,-154.1406"/>
</g>
<!-- LatticeVector&#45;&gt;Length -->
<g id="edge7" class="edge">
<title>LatticeVector&#45;&gt;Length</title>
<path fill="none" stroke="#000000" d="M282.9227,-186.4672C241.1916,-191.1502 185.5012,-197.3998 146.5637,-201.7693"/>
<polygon fill="none" stroke="#000000" points="146.0957,-198.2998 136.5484,-202.8932 146.8764,-205.2561 146.0957,-198.2998"/>
</g>
<!-- StiffnessTensor -->
<g id="node3" class="node">
<title>StiffnessTensor</title>
<g id="a_node3"><a xlink:href="http://www.emmc.info/emmc-csa/demo#DEMO_daaa03d1-bc51-4227-b4ec-14551051d813" xlink:title="StiffnessTensor">
<ellipse fill="#ffffcc" stroke="#000000" cx="340.5525" cy="-72" rx="69.1891" ry="18"/>
<text text-anchor="middle" x="340.5525" y="-67.4" font-family="Times,serif" font-size="14.00" fill="#000000">StiffnessTensor</text>
</a>
</g>
</g>
<!-- Pressure -->
<g id="node6" class="node">
<title>Pressure</title>
<g id="a_node6"><a xlink:href="http://emmo.info/emmo/middle/isq#EMMO_50a44256_9dc5_434b_bad4_74a4d9a29989" xlink:title="Pressure">
<ellipse fill="#ffffcc" stroke="#ff0000" cx="99.9522" cy="-72" rx="42.8651" ry="18"/>
<text text-anchor="middle" x="99.9522" y="-67.4" font-family="Times,serif" font-size="14.00" fill="#000000">Pressure</text>
</a>
</g>
</g>
<!-- StiffnessTensor&#45;&gt;Pressure -->
<g id="edge1" class="edge">
<title>StiffnessTensor&#45;&gt;Pressure</title>
<path fill="none" stroke="#000000" d="M271.2837,-72C233.7924,-72 188.184,-72 153.4523,-72"/>
<polygon fill="none" stroke="#000000" points="153.0438,-68.5001 143.0437,-72 153.0437,-75.5001 153.0438,-68.5001"/>
</g>
<!-- StiffnessTensor&#45;&gt;Real -->
<g id="edge2" class="edge">
<title>StiffnessTensor&#45;&gt;Real</title>
<path fill="none" stroke="#ffa500" stroke-dasharray="5,2" d="M340.5525,-90.1406C340.5525,-92.6226 340.5525,-95.1046 340.5525,-97.5865"/>
<polygon fill="#ffa500" stroke="#ffa500" points="337.0526,-97.7901 340.5525,-107.7902 344.0526,-97.7902 337.0526,-97.7901"/>
</g>
<!-- SquareMetre -->
<g id="node4" class="node">
<title>SquareMetre</title>
<g id="a_node4"><a xlink:href="http://www.emmc.info/emmc-csa/demo#DEMO_f2c861c0-567e-43f4-8d7e-dba1a41d9b83" xlink:title="SquareMetre">
<ellipse fill="#ffffcc" stroke="#000000" cx="340.5525" cy="-342" rx="59.0644" ry="18"/>
<text text-anchor="middle" x="340.5525" y="-337.4" font-family="Times,serif" font-size="14.00" fill="#000000">SquareMetre</text>
</a>
</g>
</g>
<!-- SICoherentDerivedUnit -->
<g id="node8" class="node">
<title>SICoherentDerivedUnit</title>
<g id="a_node8"><a xlink:href="http://emmo.info/emmo/middle/siunits#EMMO_1273eb34_de48_43a9_925f_104110469dd2" xlink:title="SICoherentDerivedUnit">
<ellipse fill="#ffffcc" stroke="#ff0000" cx="99.9522" cy="-342" rx="99.9045" ry="18"/>
<text text-anchor="middle" x="99.9522" y="-337.4" font-family="Times,serif" font-size="14.00" fill="#000000">SICoherentDerivedUnit</text>
</a>
</g>
</g>
<!-- SquareMetre&#45;&gt;SICoherentDerivedUnit -->
<g id="edge3" class="edge">
<title>SquareMetre&#45;&gt;SICoherentDerivedUnit</title>
<path fill="none" stroke="#000000" d="M281.3869,-342C259.8637,-342 234.7847,-342 210.2631,-342"/>
<polygon fill="none" stroke="#000000" points="210.1701,-338.5001 200.17,-342 210.17,-345.5001 210.1701,-338.5001"/>
</g>
<!-- SquareLengthDimension -->
<g id="node9" class="node">
<title>SquareLengthDimension</title>
<g id="a_node9"><a xlink:href="http://www.emmc.info/emmc-csa/demo#DEMO_7e663883-8455-469d-9235-e4caf0875c5c" xlink:title="SquareLengthDimension">
<ellipse fill="#ffffcc" stroke="#ff0000" cx="340.5525" cy="-288" rx="104.7962" ry="18"/>
<text text-anchor="middle" x="340.5525" y="-283.4" font-family="Times,serif" font-size="14.00" fill="#000000">SquareLengthDimension</text>
</a>
</g>
</g>
<!-- SquareMetre&#45;&gt;SquareLengthDimension -->
<g id="edge4" class="edge">
<title>SquareMetre&#45;&gt;SquareLengthDimension</title>
<path fill="none" stroke="#ffa500" stroke-dasharray="1,5" d="M340.5525,-323.7902C340.5525,-321.3082 340.5525,-318.8262 340.5525,-316.3443"/>
<polygon fill="#ffa500" stroke="#ffa500" points="344.0526,-316.1406 340.5525,-306.1406 337.0526,-316.1407 344.0526,-316.1406"/>
</g>
<!-- Area -->
<g id="node5" class="node">
<title>Area</title>
<g id="a_node5"><a xlink:href="http://www.emmc.info/emmc-csa/demo#DEMO_1e3308ee-4f45-493c-8a37-40e1afd9efb7" xlink:title="Area">
<ellipse fill="#ffffcc" stroke="#000000" cx="340.5525" cy="-18" rx="30.375" ry="18"/>
<text text-anchor="middle" x="340.5525" y="-13.4" font-family="Times,serif" font-size="14.00" fill="#000000">Area</text>
</a>
</g>
</g>
<!-- Area&#45;&gt;Real -->
<g id="edge10" class="edge">
<title>Area&#45;&gt;Real</title>
<path fill="none" stroke="#ffa500" stroke-dasharray="5,2" d="M370.9267,-16.6373C400.7496,-17.2045 444.4171,-23.6079 463.2004,-54 471.6121,-67.6104 471.6121,-76.3896 463.2004,-90 446.0559,-117.7405 408.1799,-125.4955 379.0231,-127.0689"/>
<polygon fill="#ffa500" stroke="#ffa500" points="378.6145,-123.58 368.7301,-127.3944 378.8358,-130.5765 378.6145,-123.58"/>
</g>
<!-- ISQDerivedQuantity -->
<g id="node11" class="node">
<title>ISQDerivedQuantity</title>
<g id="a_node11"><a xlink:href="http://emmo.info/emmo/middle/isq#EMMO_2946d40b_24a1_47fa_8176_e3f79bb45064" xlink:title="ISQDerivedQuantity">
<ellipse fill="#ffffcc" stroke="#ff0000" cx="99.9522" cy="-18" rx="88.5966" ry="18"/>
<text text-anchor="middle" x="99.9522" y="-13.4" font-family="Times,serif" font-size="14.00" fill="#000000">ISQDerivedQuantity</text>
</a>
</g>
</g>
<!-- Area&#45;&gt;ISQDerivedQuantity -->
<g id="edge9" class="edge">
<title>Area&#45;&gt;ISQDerivedQuantity</title>
<path fill="none" stroke="#000000" d="M310.0803,-18C281.9867,-18 238.7084,-18 198.7134,-18"/>
<polygon fill="none" stroke="#000000" points="198.6272,-14.5001 188.6272,-18 198.6272,-21.5001 198.6272,-14.5001"/>
</g>
<!-- key1 -->
<g id="node12" class="node">
<title>key1</title>
<text text-anchor="start" x="140.9522" y="-427.4" font-family="Times,serif" font-size="14.00" fill="#000000">isA</text>
<text text-anchor="start" x="38.9522" y="-407.4" font-family="Times,serif" font-size="14.00" fill="#000000">hasPhysicsDimension</text>
<text text-anchor="start" x="114.9522" y="-387.4" font-family="Times,serif" font-size="14.00" fill="#000000">hasType</text>
</g>
<!-- key2 -->
<g id="node13" class="node">
<title>key2</title>
<text text-anchor="start" x="339.5525" y="-427.4" font-family="Times,serif" font-size="14.00" fill="#000000"> </text>
<text text-anchor="start" x="339.5525" y="-407.4" font-family="Times,serif" font-size="14.00" fill="#000000"> </text>
<text text-anchor="start" x="339.5525" y="-387.4" font-family="Times,serif" font-size="14.00" fill="#000000"> </text>
</g>
<!-- key2&#45;&gt;key1 -->
<g id="edge11" class="edge">
<title>key2:w&#45;&gt;key1:e</title>
<path fill="none" stroke="#000000" d="M337.5525,-432C263.8628,-432 242.9577,-432 174.0103,-432"/>
<polygon fill="none" stroke="#000000" points="173.9523,-428.5001 163.9522,-432 173.9522,-435.5001 173.9523,-428.5001"/>
</g>
<!-- key2&#45;&gt;key1 -->
<g id="edge12" class="edge">
<title>key2:w&#45;&gt;key1:e</title>
<path fill="none" stroke="#ffa500" stroke-dasharray="1,5" d="M337.5525,-412C263.8628,-412 242.9577,-412 174.0103,-412"/>
<polygon fill="#ffa500" stroke="#ffa500" points="173.9523,-408.5001 163.9522,-412 173.9522,-415.5001 173.9523,-408.5001"/>
</g>
<!-- key2&#45;&gt;key1 -->
<g id="edge13" class="edge">
<title>key2:w&#45;&gt;key1:e</title>
<path fill="none" stroke="#ffa500" stroke-dasharray="5,2" d="M337.5525,-392C263.8628,-392 242.9577,-392 174.0103,-392"/>
<polygon fill="#ffa500" stroke="#ffa500" points="173.9523,-388.5001 163.9522,-392 173.9522,-395.5001 173.9523,-388.5001"/>
</g>
</g>
</svg>
