<?xml version="1.0" encoding="UTF-8" standalone="no"?>
<!-- Created with Inkscape (http://www.inkscape.org/) -->

<svg
   xmlns:dc="http://purl.org/dc/elements/1.1/"
   xmlns:cc="http://creativecommons.org/ns#"
   xmlns:rdf="http://www.w3.org/1999/02/22-rdf-syntax-ns#"
   xmlns:svg="http://www.w3.org/2000/svg"
   xmlns="http://www.w3.org/2000/svg"
   xmlns:sodipodi="http://sodipodi.sourceforge.net/DTD/sodipodi-0.dtd"
   xmlns:inkscape="http://www.inkscape.org/namespaces/inkscape"
   width="256pt"
   height="256pt"
   viewBox="0 0 320.00001 320"
   id="svg2"
   version="1.1"
   inkscape:version="0.91 r"
   sodipodi:docname="devices_icon.svg">
  <defs
     id="defs4">
    <marker
       inkscape:stockid="Arrow1Lend"
       orient="auto"
       refY="0.0"
       refX="0.0"
       id="Arrow1Lend"
       style="overflow:visible;"
       inkscape:isstock="true">
      <path
         id="path4156"
         d="M 0.0,0.0 L 5.0,-5.0 L -12.5,0.0 L 5.0,5.0 L 0.0,0.0 z "
         style="fill-rule:evenodd;stroke:#808080;stroke-width:1pt;stroke-opacity:1;fill:#808080;fill-opacity:1"
         transform="scale(0.8) rotate(180) translate(12.5,0)" />
    </marker>
    <marker
       inkscape:stockid="TriangleOutM"
       orient="auto"
       refY="0.0"
       refX="0.0"
       id="marker4651"
       style="overflow:visible"
       inkscape:isstock="true">
      <path
         id="path4653"
         d="M 5.77,0.0 L -2.88,5.0 L -2.88,-5.0 L 5.77,0.0 z "
         style="fill-rule:evenodd;stroke:#808080;stroke-width:1pt;stroke-opacity:1;fill:#808080;fill-opacity:1"
         transform="scale(0.4)" />
    </marker>
    <marker
       inkscape:stockid="TriangleOutM"
       orient="auto"
       refY="0.0"
       refX="0.0"
       id="marker4587"
       style="overflow:visible"
       inkscape:isstock="true">
      <path
         id="path4589"
         d="M 5.77,0.0 L -2.88,5.0 L -2.88,-5.0 L 5.77,0.0 z "
         style="fill-rule:evenodd;stroke:#808080;stroke-width:1pt;stroke-opacity:1;fill:#808080;fill-opacity:1"
         transform="scale(0.4)" />
    </marker>
    <marker
       inkscape:stockid="Arrow1Send"
       orient="auto"
       refY="0.0"
       refX="0.0"
       id="marker4529"
       style="overflow:visible;"
       inkscape:isstock="true">
      <path
         id="path4531"
         d="M 0.0,0.0 L 5.0,-5.0 L -12.5,0.0 L 5.0,5.0 L 0.0,0.0 z "
         style="fill-rule:evenodd;stroke:#808080;stroke-width:1pt;stroke-opacity:1;fill:#808080;fill-opacity:1"
         transform="scale(0.2) rotate(180) translate(6,0)" />
    </marker>
    <marker
       inkscape:stockid="Arrow1Send"
       orient="auto"
       refY="0.0"
       refX="0.0"
       id="Arrow1Send"
       style="overflow:visible;"
       inkscape:isstock="true">
      <path
         id="path4168"
         d="M 0.0,0.0 L 5.0,-5.0 L -12.5,0.0 L 5.0,5.0 L 0.0,0.0 z "
         style="fill-rule:evenodd;stroke:#808080;stroke-width:1pt;stroke-opacity:1;fill:#808080;fill-opacity:1"
         transform="scale(0.2) rotate(180) translate(6,0)" />
    </marker>
    <marker
       inkscape:stockid="TriangleOutM"
       orient="auto"
       refY="0.0"
       refX="0.0"
       id="marker4469"
       style="overflow:visible"
       inkscape:isstock="true">
      <path
         id="path4471"
         d="M 5.77,0.0 L -2.88,5.0 L -2.88,-5.0 L 5.77,0.0 z "
         style="fill-rule:evenodd;stroke:#808080;stroke-width:1pt;stroke-opacity:1;fill:#808080;fill-opacity:1"
         transform="scale(0.4)" />
    </marker>
    <marker
       inkscape:stockid="TriangleOutM"
       orient="auto"
       refY="0.0"
       refX="0.0"
       id="TriangleOutM"
       style="overflow:visible"
       inkscape:isstock="true">
      <path
         id="path4298"
         d="M 5.77,0.0 L -2.88,5.0 L -2.88,-5.0 L 5.77,0.0 z "
         style="fill-rule:evenodd;stroke:#808080;stroke-width:1pt;stroke-opacity:1;fill:#808080;fill-opacity:1"
         transform="scale(0.4)" />
    </marker>
  </defs>
  <sodipodi:namedview
     id="base"
     pagecolor="#ffffff"
     bordercolor="#666666"
     borderopacity="1.0"
     inkscape:pageopacity="0.0"
     inkscape:pageshadow="2"
     inkscape:zoom="2.159375"
     inkscape:cx="90.767004"
     inkscape:cy="122.02605"
     inkscape:document-units="px"
     inkscape:current-layer="layer1"
     showgrid="false"
     units="pt"
     inkscape:window-width="1920"
     inkscape:window-height="1173"
     inkscape:window-x="1600"
     inkscape:window-y="0"
     inkscape:window-maximized="1" />
  <metadata
     id="metadata7">
    <rdf:RDF>
      <cc:Work
         rdf:about="">
        <dc:format>image/svg+xml</dc:format>
        <dc:type
           rdf:resource="http://purl.org/dc/dcmitype/StillImage" />
        <dc:title />
      </cc:Work>
    </rdf:RDF>
  </metadata>
  <g
     inkscape:label="Layer 1"
     inkscape:groupmode="layer"
     id="layer1"
     transform="translate(0,-732.36222)">
    <rect
       style="opacity:1;fill:#ffffff;fill-opacity:1;stroke:#808080;stroke-width:9.8170414;stroke-miterlimit:4;stroke-dasharray:none;stroke-dashoffset:0;stroke-opacity:1"
       id="rect4136"
       width="310.18295"
       height="310.18295"
       x="4.9085207"
       y="737.27032"
       rx="29.504078" />
    <g
       id="g4258"
       transform="translate(10.063547,-13.012444)">
      <g
         id="g4227">
        <path
           sodipodi:type="star"
           style="opacity:1;fill:#666666;fill-opacity:1;stroke:#666666;stroke-width:5;stroke-miterlimit:4;stroke-dasharray:none;stroke-dashoffset:0;stroke-opacity:1"
           id="path4221"
           sodipodi:sides="21"
           sodipodi:cx="83.870972"
           sodipodi:cy="875.26544"
           sodipodi:r1="34.650028"
           sodipodi:r2="28.413023"
           sodipodi:arg1="0.94405343"
           sodipodi:arg2="1.0936531"
           inkscape:flatsided="false"
           inkscape:rounded="0"
           inkscape:randomized="0"
           d="m 104.19355,903.32996 -7.274086,-2.82493 -1.900948,7.56829 -6.118259,-4.8435 -4.047286,6.67173 -4.418795,-6.43171 -5.834005,5.18238 -2.326701,-7.44843 -7.102348,3.23253 -0.02787,-7.80332 -7.739615,0.99546 2.273438,-7.46486 -7.689185,-1.33005 4.372742,-6.46311 -6.955536,-3.53739 6.083506,-4.88708 -5.603856,-5.43041 7.253726,-2.87682 -3.754251,-6.84092 7.779419,-0.61093 -1.571063,-7.64358 7.613878,1.70923 0.751721,-7.76708 6.77181,3.87752 3.00771,-7.20043 5.328037,5.70128 4.996452,-5.994 3.410844,7.01846 6.541237,-4.25498 1.190583,7.71201 7.504801,-2.13787 -1.13546,7.72032 7.80153,0.16918 -3.36062,7.04264 7.40507,2.46121 -5.28718,5.7392 6.35063,4.53455 -6.74394,3.9258 4.7319,6.20497 -7.60147,1.76357 2.69273,7.32406 -7.78359,-0.55536 z"
           inkscape:transform-center-x="-0.67405482"
           inkscape:transform-center-y="-0.1579016"
           transform="matrix(1.6454519,0,0,1.6739866,-31.768991,-595.00897)" />
        <ellipse
           style="opacity:1;fill:#ffffff;fill-opacity:1;stroke:#666666;stroke-width:5;stroke-miterlimit:4;stroke-dasharray:none;stroke-dashoffset:0;stroke-opacity:1"
           id="path4223"
           cx="106.12904"
           cy="868.9751"
           rx="13.225806"
           ry="13.387096" />
      </g>
      <path
         sodipodi:type="star"
         style="opacity:1;fill:#808080;fill-opacity:1;stroke:#808080;stroke-width:5;stroke-miterlimit:4;stroke-dasharray:none;stroke-dashoffset:0;stroke-opacity:1"
         id="path4233"
         sodipodi:sides="21"
         sodipodi:cx="83.870972"
         sodipodi:cy="875.26544"
         sodipodi:r1="34.650028"
         sodipodi:r2="28.413023"
         sodipodi:arg1="0.94405343"
         sodipodi:arg2="1.0936531"
         inkscape:flatsided="false"
         inkscape:rounded="0"
         inkscape:randomized="0"
         d="m 104.19355,903.32996 -7.274086,-2.82493 -1.900948,7.56829 -6.118259,-4.8435 -4.047286,6.67173 -4.418795,-6.43171 -5.834005,5.18238 -2.326701,-7.44843 -7.102348,3.23253 -0.02787,-7.80332 -7.739615,0.99546 2.273438,-7.46486 -7.689185,-1.33005 4.372742,-6.46311 -6.955536,-3.53739 6.083506,-4.88708 -5.603856,-5.43041 7.253726,-2.87682 -3.754251,-6.84092 7.779419,-0.61093 -1.571063,-7.64358 7.613878,1.70923 0.751721,-7.76708 6.77181,3.87752 3.00771,-7.20043 5.328037,5.70128 4.996452,-5.994 3.410844,7.01846 6.541237,-4.25498 1.190583,7.71201 7.504801,-2.13787 -1.13546,7.72032 7.80153,0.16918 -3.36062,7.04264 7.40507,2.46121 -5.28718,5.7392 6.35063,4.53455 -6.74394,3.9258 4.7319,6.20497 -7.60147,1.76357 2.69273,7.32406 -7.78359,-0.55536 z"
         inkscape:transform-center-x="-0.67405482"
         inkscape:transform-center-y="-0.1579016"
         transform="matrix(1.5035528,0,0,1.5296267,71.688107,-398.47481)" />
      <ellipse
         style="opacity:1;fill:#ffffff;fill-opacity:1;stroke:#666666;stroke-width:4.56881428;stroke-miterlimit:4;stroke-dasharray:none;stroke-dashoffset:0;stroke-opacity:1"
         id="ellipse4235"
         cx="197.6942"
         cy="939.2594"
         rx="12.08525"
         ry="12.232631" />
    </g>
  </g>
</svg>
