<?xml version="1.0" encoding="UTF-8" standalone="no"?>
<!DOCTYPE svg PUBLIC "-//W3C//DTD SVG 1.1//EN"
 "http://www.w3.org/Graphics/SVG/1.1/DTD/svg11.dtd">
<!-- Generated by graphviz version 2.40.1 (20161225.0304)
 -->
<!-- Title: %3 Pages: 1 -->
<svg width="606pt" height="852pt"
 viewBox="0.00 0.00 606.15 852.00" xmlns="http://www.w3.org/2000/svg" xmlns:xlink="http://www.w3.org/1999/xlink">
<g id="graph0" class="graph" transform="scale(1 1) rotate(0) translate(4 848)">
<title>%3</title>
<polygon fill="#ffffff" stroke="transparent" points="-4,4 -4,-848 602.1541,-848 602.1541,4 -4,4"/>
<!-- Position -->
<g id="node1" class="node">
<title>Position</title>
<g id="a_node1"><a xlink:href="http://www.emmc.info/emmc-csa/demo#DEMO_815f4935-7bcb-4b6c-85f0-e572024ece12" xlink:title="Position">
<ellipse fill="#ffffcc" stroke="#000000" cx="480.5296" cy="-666" rx="41.6819" ry="18"/>
<text text-anchor="middle" x="480.5296" y="-661.4" font-family="Times,serif" font-size="14.00" fill="#000000">Position</text>
</a>
</g>
</g>
<!-- Real -->
<g id="node14" class="node">
<title>Real</title>
<g id="a_node14"><a xlink:href="http://emmo.info/emmo/middle/math#EMMO_18d180e4_5e3e_42f7_820c_e08951223486" xlink:title="Real">
<ellipse fill="#ffc880" stroke="#ff0000" cx="480.5296" cy="-450" rx="28.35" ry="18"/>
<text text-anchor="middle" x="480.5296" y="-445.4" font-family="Times,serif" font-size="14.00" fill="#000000">Real</text>
</a>
</g>
</g>
<!-- Position&#45;&gt;Real -->
<g id="edge16" class="edge">
<title>Position&#45;&gt;Real</title>
<path fill="none" stroke="#ffa500" stroke-dasharray="5,2" d="M521.729,-663.361C544.0991,-659.491 569.7121,-650.5006 582.3822,-630 599.2056,-602.7792 599.2056,-513.2208 582.3822,-486 569.2145,-464.6942 542.0673,-455.8206 519.1093,-452.2063"/>
<polygon fill="#ffa500" stroke="#ffa500" points="519.2871,-448.7003 508.921,-450.89 518.3901,-455.6426 519.2871,-448.7003"/>
</g>
<!-- Length -->
<g id="node21" class="node">
<title>Length</title>
<g id="a_node21"><a xlink:href="http://emmo.info/emmo/middle/isq#EMMO_cd2cd0de_e0cc_4ef1_b27e_2e88db027bac" xlink:title="Length">
<ellipse fill="#ffffcc" stroke="#ff0000" cx="260.7248" cy="-639" rx="37.632" ry="18"/>
<text text-anchor="middle" x="260.7248" y="-634.4" font-family="Times,serif" font-size="14.00" fill="#000000">Length</text>
</a>
</g>
</g>
<!-- Position&#45;&gt;Length -->
<g id="edge15" class="edge">
<title>Position&#45;&gt;Length</title>
<path fill="none" stroke="#000000" d="M440.4696,-661.0792C402.9589,-656.4715 346.9137,-649.5871 307.3972,-644.7331"/>
<polygon fill="none" stroke="#000000" points="307.5766,-641.2289 297.2244,-643.4835 306.7231,-648.1767 307.5766,-641.2289"/>
</g>
<!-- LatticeVector -->
<g id="node2" class="node">
<title>LatticeVector</title>
<g id="a_node2"><a xlink:href="http://www.emmc.info/emmc-csa/demo#DEMO_82bfed1b-10f1-4abd-a687-2599b5fbe802" xlink:title="LatticeVector">
<ellipse fill="#ffffcc" stroke="#000000" cx="480.5296" cy="-612" rx="61.9317" ry="18"/>
<text text-anchor="middle" x="480.5296" y="-607.4" font-family="Times,serif" font-size="14.00" fill="#000000">LatticeVector</text>
</a>
</g>
</g>
<!-- LatticeVector&#45;&gt;Real -->
<g id="edge18" class="edge">
<title>LatticeVector&#45;&gt;Real</title>
<path fill="none" stroke="#ffa500" stroke-dasharray="5,2" d="M538.258,-605.5764C555.7039,-600.4833 572.7687,-591.5549 582.3822,-576 603.4114,-541.974 603.4114,-520.026 582.3822,-486 569.2145,-464.6942 542.0673,-455.8206 519.1093,-452.2063"/>
<polygon fill="#ffa500" stroke="#ffa500" points="519.2871,-448.7003 508.921,-450.89 518.3901,-455.6426 519.2871,-448.7003"/>
</g>
<!-- LatticeVector&#45;&gt;Length -->
<g id="edge17" class="edge">
<title>LatticeVector&#45;&gt;Length</title>
<path fill="none" stroke="#000000" d="M423.6386,-618.9883C387.557,-623.4204 341.4512,-629.0839 307.5031,-633.2539"/>
<polygon fill="none" stroke="#000000" points="306.8809,-629.804 297.3823,-634.4971 307.7344,-636.7517 306.8809,-629.804"/>
</g>
<!-- Crystal -->
<g id="node3" class="node">
<title>Crystal</title>
<g id="a_node3"><a xlink:href="http://www.emmc.info/emmc-csa/demo#DEMO_7c655f93-d224-4a1c-bd5b-26bb295bd08c" xlink:title="Crystal">
<ellipse fill="#ffffcc" stroke="#000000" cx="480.5296" cy="-558" rx="38.475" ry="18"/>
<text text-anchor="middle" x="480.5296" y="-553.4" font-family="Times,serif" font-size="14.00" fill="#000000">Crystal</text>
</a>
</g>
</g>
<!-- CrystalUnitCell -->
<g id="node4" class="node">
<title>CrystalUnitCell</title>
<g id="a_node4"><a xlink:href="http://www.emmc.info/emmc-csa/demo#DEMO_a35f6f10-a2a3-4e30-aa02-88fd53c7773e" xlink:title="CrystalUnitCell">
<ellipse fill="#ffffcc" stroke="#000000" cx="260.7248" cy="-72" rx="69.5314" ry="18"/>
<text text-anchor="middle" x="260.7248" y="-67.4" font-family="Times,serif" font-size="14.00" fill="#000000">CrystalUnitCell</text>
</a>
</g>
</g>
<!-- Crystal&#45;&gt;CrystalUnitCell -->
<g id="edge9" class="edge">
<title>Crystal&#45;&gt;CrystalUnitCell</title>
<path fill="none" stroke="#006400" d="M442.6978,-555.0128C426.0514,-551.6668 407.7926,-544.8269 396.6771,-531 343.8087,-465.2357 400.5636,-227.3577 360.6771,-153 347.2218,-127.9163 322.3927,-107.7332 300.8484,-93.7878"/>
<polygon fill="#006400" stroke="#006400" points="302.5076,-90.6978 292.1688,-88.3824 298.8071,-96.6398 302.5076,-90.6978"/>
</g>
<!-- Solid -->
<g id="node18" class="node">
<title>Solid</title>
<g id="a_node18"><a xlink:href="http://emmo.info/emmo/middle/materials#EMMO_a2b006f2_bbfd_4dba_bcaa_3fca20cd6be1" xlink:title="Solid">
<ellipse fill="#ffffcc" stroke="#ff0000" cx="260.7248" cy="-558" rx="30.7161" ry="18"/>
<text text-anchor="middle" x="260.7248" y="-553.4" font-family="Times,serif" font-size="14.00" fill="#000000">Solid</text>
</a>
</g>
</g>
<!-- Crystal&#45;&gt;Solid -->
<g id="edge8" class="edge">
<title>Crystal&#45;&gt;Solid</title>
<path fill="none" stroke="#000000" d="M442.2425,-558C402.9797,-558 342.1177,-558 301.8508,-558"/>
<polygon fill="none" stroke="#000000" points="301.8313,-554.5001 291.8312,-558 301.8312,-561.5001 301.8313,-554.5001"/>
</g>
<!-- CrystalUnitCell&#45;&gt;LatticeVector -->
<g id="edge12" class="edge">
<title>CrystalUnitCell&#45;&gt;LatticeVector</title>
<path fill="none" stroke="#ffa500" stroke-dasharray="1,5" d="M292.264,-88.3317C315.4813,-102.1867 345.5368,-124.3704 360.6771,-153 405.7115,-238.1581 336.7642,-509.5649 396.6771,-585 401.693,-591.3155 408.2007,-596.1748 415.3725,-599.9099"/>
<polygon fill="#ffa500" stroke="#ffa500" points="414.1892,-603.2137 424.7498,-604.0646 417.0249,-596.8137 414.1892,-603.2137"/>
</g>
<!-- StiffnessTensor -->
<g id="node5" class="node">
<title>StiffnessTensor</title>
<g id="a_node5"><a xlink:href="http://www.emmc.info/emmc-csa/demo#DEMO_daaa03d1-bc51-4227-b4ec-14551051d813" xlink:title="StiffnessTensor">
<ellipse fill="#ffffcc" stroke="#000000" cx="480.5296" cy="-504" rx="69.1891" ry="18"/>
<text text-anchor="middle" x="480.5296" y="-499.4" font-family="Times,serif" font-size="14.00" fill="#000000">StiffnessTensor</text>
</a>
</g>
</g>
<!-- CrystalUnitCell&#45;&gt;StiffnessTensor -->
<g id="edge13" class="edge">
<title>CrystalUnitCell&#45;&gt;StiffnessTensor</title>
<path fill="none" stroke="#ffa500" stroke-dasharray="1,5" d="M291.5658,-88.1639C314.7265,-102.0636 345.0372,-124.3854 360.6771,-153 430.1653,-280.1353 305.0147,-364.7948 396.6771,-477 401.0326,-482.3317 406.4492,-486.6232 412.4189,-490.0754"/>
<polygon fill="#ffa500" stroke="#ffa500" points="410.9853,-493.2708 421.5018,-494.5562 414.0822,-486.9932 410.9853,-493.2708"/>
</g>
<!-- MaterialState -->
<g id="node19" class="node">
<title>MaterialState</title>
<g id="a_node19"><a xlink:href="http://emmo.info/emmo/middle/materials#EMMO_20fff605_465f_4034_8696_e53e90ec83f4" xlink:title="MaterialState">
<ellipse fill="#ffc880" stroke="#ff0000" cx="62.3863" cy="-72" rx="62.2728" ry="18"/>
<text text-anchor="middle" x="62.3863" y="-67.4" font-family="Times,serif" font-size="14.00" fill="#000000">MaterialState</text>
</a>
</g>
</g>
<!-- CrystalUnitCell&#45;&gt;MaterialState -->
<g id="edge10" class="edge">
<title>CrystalUnitCell&#45;&gt;MaterialState</title>
<path fill="none" stroke="#000000" d="M190.7981,-72C172.814,-72 153.4209,-72 135.2901,-72"/>
<polygon fill="none" stroke="#000000" points="135.0738,-68.5001 125.0738,-72 135.0737,-75.5001 135.0738,-68.5001"/>
</g>
<!-- BondedAtom -->
<g id="node20" class="node">
<title>BondedAtom</title>
<g id="a_node20"><a xlink:href="http://emmo.info/emmo/middle/materials#EMMO_8303a247_f9d9_4616_bdcd_f5cbd7b298e3" xlink:title="BondedAtom">
<ellipse fill="#ffffcc" stroke="#ff0000" cx="480.5296" cy="-18" rx="62.2728" ry="18"/>
<text text-anchor="middle" x="480.5296" y="-13.4" font-family="Times,serif" font-size="14.00" fill="#000000">BondedAtom</text>
</a>
</g>
</g>
<!-- CrystalUnitCell&#45;&gt;BondedAtom -->
<g id="edge11" class="edge">
<title>CrystalUnitCell&#45;&gt;BondedAtom</title>
<path fill="none" stroke="#006400" d="M311.3853,-59.5541C344.6595,-51.3795 388.2669,-40.6664 422.8698,-32.1654"/>
<polygon fill="#006400" stroke="#006400" points="423.9591,-35.502 432.8353,-29.7172 422.289,-28.7041 423.9591,-35.502"/>
</g>
<!-- Pressure -->
<g id="node13" class="node">
<title>Pressure</title>
<g id="a_node13"><a xlink:href="http://emmo.info/emmo/middle/isq#EMMO_50a44256_9dc5_434b_bad4_74a4d9a29989" xlink:title="Pressure">
<ellipse fill="#ffffcc" stroke="#ff0000" cx="260.7248" cy="-504" rx="42.8651" ry="18"/>
<text text-anchor="middle" x="260.7248" y="-499.4" font-family="Times,serif" font-size="14.00" fill="#000000">Pressure</text>
</a>
</g>
</g>
<!-- StiffnessTensor&#45;&gt;Pressure -->
<g id="edge1" class="edge">
<title>StiffnessTensor&#45;&gt;Pressure</title>
<path fill="none" stroke="#000000" d="M411.2837,-504C379.7652,-504 343.0534,-504 313.7722,-504"/>
<polygon fill="none" stroke="#000000" points="313.7458,-500.5001 303.7457,-504 313.7457,-507.5001 313.7458,-500.5001"/>
</g>
<!-- StiffnessTensor&#45;&gt;Real -->
<g id="edge2" class="edge">
<title>StiffnessTensor&#45;&gt;Real</title>
<path fill="none" stroke="#ffa500" stroke-dasharray="5,2" d="M480.5296,-485.7902C480.5296,-483.3082 480.5296,-480.8262 480.5296,-478.3443"/>
<polygon fill="#ffa500" stroke="#ffa500" points="484.0297,-478.1406 480.5296,-468.1406 477.0297,-478.1407 484.0297,-478.1406"/>
</g>
<!-- SquareMetre -->
<g id="node6" class="node">
<title>SquareMetre</title>
<g id="a_node6"><a xlink:href="http://www.emmc.info/emmc-csa/demo#DEMO_f2c861c0-567e-43f4-8d7e-dba1a41d9b83" xlink:title="SquareMetre">
<ellipse fill="#ffffcc" stroke="#000000" cx="480.5296" cy="-720" rx="59.0644" ry="18"/>
<text text-anchor="middle" x="480.5296" y="-715.4" font-family="Times,serif" font-size="14.00" fill="#000000">SquareMetre</text>
</a>
</g>
</g>
<!-- SICoherentDerivedUnit -->
<g id="node15" class="node">
<title>SICoherentDerivedUnit</title>
<g id="a_node15"><a xlink:href="http://emmo.info/emmo/middle/siunits#EMMO_1273eb34_de48_43a9_925f_104110469dd2" xlink:title="SICoherentDerivedUnit">
<ellipse fill="#ffffcc" stroke="#ff0000" cx="260.7248" cy="-720" rx="99.9045" ry="18"/>
<text text-anchor="middle" x="260.7248" y="-715.4" font-family="Times,serif" font-size="14.00" fill="#000000">SICoherentDerivedUnit</text>
</a>
</g>
</g>
<!-- SquareMetre&#45;&gt;SICoherentDerivedUnit -->
<g id="edge3" class="edge">
<title>SquareMetre&#45;&gt;SICoherentDerivedUnit</title>
<path fill="none" stroke="#000000" d="M421.3368,-720C405.7118,-720 388.3352,-720 370.948,-720"/>
<polygon fill="none" stroke="#000000" points="370.7226,-716.5001 360.7226,-720 370.7226,-723.5001 370.7226,-716.5001"/>
</g>
<!-- Phase -->
<g id="node7" class="node">
<title>Phase</title>
<g id="a_node7"><a xlink:href="http://www.emmc.info/emmc-csa/demo#DEMO_3310da2f-ea1a-429a-862c-75c5efa640e8" xlink:title="Phase">
<ellipse fill="#ffffcc" stroke="#000000" cx="480.5296" cy="-288" rx="32.7409" ry="18"/>
<text text-anchor="middle" x="480.5296" y="-283.4" font-family="Times,serif" font-size="14.00" fill="#000000">Phase</text>
</a>
</g>
</g>
<!-- Phase&#45;&gt;StiffnessTensor -->
<g id="edge20" class="edge">
<title>Phase&#45;&gt;StiffnessTensor</title>
<path fill="none" stroke="#ffa500" stroke-dasharray="1,5" d="M513.3064,-289.3879C537.3081,-292.39 568.0852,-300.867 582.3822,-324 599.2056,-351.2208 599.2056,-440.7792 582.3822,-468 575.3893,-479.3147 564.4538,-487.1232 552.2969,-492.4998"/>
<polygon fill="#ffa500" stroke="#ffa500" points="550.881,-489.2945 542.8074,-496.1551 553.3972,-495.8266 550.881,-489.2945"/>
</g>
<!-- Continuum -->
<g id="node17" class="node">
<title>Continuum</title>
<g id="a_node17"><a xlink:href="http://emmo.info/emmo/middle/materials#EMMO_8b0923ab_b500_477b_9ce9_8b3a3e4dc4f2" xlink:title="Continuum">
<ellipse fill="#ffffcc" stroke="#ff0000" cx="260.7248" cy="-288" rx="52.9896" ry="18"/>
<text text-anchor="middle" x="260.7248" y="-283.4" font-family="Times,serif" font-size="14.00" fill="#000000">Continuum</text>
</a>
</g>
</g>
<!-- Phase&#45;&gt;Continuum -->
<g id="edge19" class="edge">
<title>Phase&#45;&gt;Continuum</title>
<path fill="none" stroke="#000000" d="M447.6226,-288C415.053,-288 364.3533,-288 323.9722,-288"/>
<polygon fill="none" stroke="#000000" points="323.9455,-284.5001 313.9455,-288 323.9455,-291.5001 323.9455,-284.5001"/>
</g>
<!-- WeldedComponent -->
<g id="node8" class="node">
<title>WeldedComponent</title>
<g id="a_node8"><a xlink:href="http://www.emmc.info/emmc-csa/demo#DEMO_343aef12-325b-471b-ac41-3d839a670263" xlink:title="WeldedComponent">
<ellipse fill="#ffffcc" stroke="#000000" cx="480.5296" cy="-180" rx="83.7054" ry="18"/>
<text text-anchor="middle" x="480.5296" y="-175.4" font-family="Times,serif" font-size="14.00" fill="#000000">WeldedComponent</text>
</a>
</g>
</g>
<!-- Boundary -->
<g id="node11" class="node">
<title>Boundary</title>
<g id="a_node11"><a xlink:href="http://www.emmc.info/emmc-csa/demo#DEMO_2c2daad3-ce71-49ea-891e-e468c873b3e9" xlink:title="Boundary">
<ellipse fill="#ffc880" stroke="#000000" cx="480.5296" cy="-342" rx="48.9398" ry="18"/>
<text text-anchor="middle" x="480.5296" y="-337.4" font-family="Times,serif" font-size="14.00" fill="#000000">Boundary</text>
</a>
</g>
</g>
<!-- WeldedComponent&#45;&gt;Boundary -->
<g id="edge25" class="edge">
<title>WeldedComponent&#45;&gt;Boundary</title>
<path fill="none" stroke="#006400" d="M549.4071,-190.2762C562.7092,-195.6702 574.8393,-203.7954 582.3822,-216 603.4114,-250.026 603.4114,-271.974 582.3822,-306 572.7317,-321.6147 555.5725,-330.5519 538.0567,-335.635"/>
<polygon fill="#006400" stroke="#006400" points="537.1786,-332.2468 528.3344,-338.0804 538.8862,-339.0353 537.1786,-332.2468"/>
</g>
<!-- Component -->
<g id="node22" class="node">
<title>Component</title>
<g id="a_node22"><a xlink:href="http://emmo.info/emmo/middle/manufacturing#EMMO_494b372c_cfdf_47d3_a4de_5e037c540de8" xlink:title="Component">
<ellipse fill="#ffffcc" stroke="#ff0000" cx="260.7248" cy="-180" rx="55.0145" ry="18"/>
<text text-anchor="middle" x="260.7248" y="-175.4" font-family="Times,serif" font-size="14.00" fill="#000000">Component</text>
</a>
</g>
</g>
<!-- WeldedComponent&#45;&gt;Component -->
<g id="edge23" class="edge">
<title>WeldedComponent&#45;&gt;Component</title>
<path fill="none" stroke="#000000" d="M396.49,-180C373.1586,-180 348.1785,-180 326.088,-180"/>
<polygon fill="none" stroke="#000000" points="325.828,-176.5001 315.828,-180 325.8279,-183.5001 325.828,-176.5001"/>
</g>
<!-- Material -->
<g id="node23" class="node">
<title>Material</title>
<g id="a_node23"><a xlink:href="http://emmo.info/emmo/middle/physicalistic#EMMO_4207e895_8b83_4318_996a_72cfb32acd94" xlink:title="Material">
<ellipse fill="#ffffcc" stroke="#ff0000" cx="480.5296" cy="-126" rx="43.7069" ry="18"/>
<text text-anchor="middle" x="480.5296" y="-121.4" font-family="Times,serif" font-size="14.00" fill="#000000">Material</text>
</a>
</g>
</g>
<!-- WeldedComponent&#45;&gt;Material -->
<g id="edge24" class="edge">
<title>WeldedComponent&#45;&gt;Material</title>
<path fill="none" stroke="#006400" d="M480.5296,-161.7902C480.5296,-159.3082 480.5296,-156.8262 480.5296,-154.3443"/>
<polygon fill="#006400" stroke="#006400" points="484.0297,-154.1406 480.5296,-144.1406 477.0297,-154.1407 484.0297,-154.1406"/>
</g>
<!-- RVE -->
<g id="node9" class="node">
<title>RVE</title>
<g id="a_node9"><a xlink:href="http://www.emmc.info/emmc-csa/demo#DEMO_9510f8ac-7924-4298-b955-602b32c8abdf" xlink:title="RVE">
<ellipse fill="#ffffcc" stroke="#000000" cx="480.5296" cy="-234" rx="29.5322" ry="18"/>
<text text-anchor="middle" x="480.5296" y="-229.4" font-family="Times,serif" font-size="14.00" fill="#000000">RVE</text>
</a>
</g>
</g>
<!-- RVE&#45;&gt;Continuum -->
<g id="edge14" class="edge">
<title>RVE&#45;&gt;Continuum</title>
<path fill="none" stroke="#000000" d="M453.1356,-240.73C418.4365,-249.2546 357.8783,-264.1321 313.951,-274.9238"/>
<polygon fill="none" stroke="#000000" points="312.8849,-271.5815 304.0087,-277.3663 314.555,-278.3794 312.8849,-271.5815"/>
</g>
<!-- Area -->
<g id="node10" class="node">
<title>Area</title>
<g id="a_node10"><a xlink:href="http://www.emmc.info/emmc-csa/demo#DEMO_1e3308ee-4f45-493c-8a37-40e1afd9efb7" xlink:title="Area">
<ellipse fill="#ffffcc" stroke="#000000" cx="480.5296" cy="-396" rx="30.375" ry="18"/>
<text text-anchor="middle" x="480.5296" y="-391.4" font-family="Times,serif" font-size="14.00" fill="#000000">Area</text>
</a>
</g>
</g>
<!-- Area&#45;&gt;Real -->
<g id="edge5" class="edge">
<title>Area&#45;&gt;Real</title>
<path fill="none" stroke="#ffa500" stroke-dasharray="5,2" d="M480.5296,-414.1406C480.5296,-416.6226 480.5296,-419.1046 480.5296,-421.5865"/>
<polygon fill="#ffa500" stroke="#ffa500" points="477.0297,-421.7901 480.5296,-431.7902 484.0297,-421.7902 477.0297,-421.7901"/>
</g>
<!-- ISQDerivedQuantity -->
<g id="node16" class="node">
<title>ISQDerivedQuantity</title>
<g id="a_node16"><a xlink:href="http://emmo.info/emmo/middle/isq#EMMO_2946d40b_24a1_47fa_8176_e3f79bb45064" xlink:title="ISQDerivedQuantity">
<ellipse fill="#ffffcc" stroke="#ff0000" cx="260.7248" cy="-396" rx="88.5966" ry="18"/>
<text text-anchor="middle" x="260.7248" y="-391.4" font-family="Times,serif" font-size="14.00" fill="#000000">ISQDerivedQuantity</text>
</a>
</g>
</g>
<!-- Area&#45;&gt;ISQDerivedQuantity -->
<g id="edge4" class="edge">
<title>Area&#45;&gt;ISQDerivedQuantity</title>
<path fill="none" stroke="#000000" d="M449.9667,-396C426.3412,-396 392.2418,-396 359.4778,-396"/>
<polygon fill="none" stroke="#000000" points="359.3657,-392.5001 349.3657,-396 359.3656,-399.5001 359.3657,-392.5001"/>
</g>
<!-- Boundary&#45;&gt;Area -->
<g id="edge7" class="edge">
<title>Boundary&#45;&gt;Area</title>
<path fill="none" stroke="#ffa500" stroke-dasharray="1,5" d="M480.5296,-360.1406C480.5296,-362.6226 480.5296,-365.1046 480.5296,-367.5865"/>
<polygon fill="#ffa500" stroke="#ffa500" points="477.0297,-367.7901 480.5296,-377.7902 484.0297,-367.7902 477.0297,-367.7901"/>
</g>
<!-- Boundary&#45;&gt;Continuum -->
<g id="edge6" class="edge">
<title>Boundary&#45;&gt;Continuum</title>
<path fill="none" stroke="#000000" d="M439.7012,-331.9696C404.2572,-323.262 352.6941,-310.5943 314.0078,-301.0902"/>
<polygon fill="none" stroke="#000000" points="314.512,-297.61 303.9657,-298.6231 312.8419,-304.4079 314.512,-297.61"/>
</g>
<!-- InterfaceModel -->
<g id="node12" class="node">
<title>InterfaceModel</title>
<g id="a_node12"><a xlink:href="http://www.emmc.info/emmc-csa/demo#DEMO_8b4dccdf-dadc-4f4e-99c5-1c09339bf051" xlink:title="InterfaceModel">
<ellipse fill="#ffffcc" stroke="#000000" cx="480.5296" cy="-72" rx="69.1891" ry="18"/>
<text text-anchor="middle" x="480.5296" y="-67.4" font-family="Times,serif" font-size="14.00" fill="#000000">InterfaceModel</text>
</a>
</g>
</g>
<!-- InterfaceModel&#45;&gt;CrystalUnitCell -->
<g id="edge21" class="edge">
<title>InterfaceModel&#45;&gt;CrystalUnitCell</title>
<path fill="none" stroke="#000000" d="M411.2837,-72C388.9219,-72 363.946,-72 340.8643,-72"/>
<polygon fill="none" stroke="#000000" points="340.7563,-68.5001 330.7563,-72 340.7562,-75.5001 340.7563,-68.5001"/>
</g>
<!-- InterfaceModel&#45;&gt;Area -->
<g id="edge22" class="edge">
<title>InterfaceModel&#45;&gt;Area</title>
<path fill="none" stroke="#ffa500" stroke-dasharray="1,5" d="M542.8074,-79.8449C558.6227,-85.1238 573.6068,-93.8011 582.3822,-108 597.1026,-131.8182 597.1026,-336.1818 582.3822,-360 569.5565,-380.7524 543.4681,-389.71 520.9064,-393.5013"/>
<polygon fill="#ffa500" stroke="#ffa500" points="520.2695,-390.0561 510.8486,-394.9035 521.2362,-396.9891 520.2695,-390.0561"/>
</g>
<!-- key1 -->
<g id="node24" class="node">
<title>key1</title>
<text text-anchor="start" x="297.7248" y="-825.4" font-family="Times,serif" font-size="14.00" fill="#000000">isA</text>
<text text-anchor="start" x="250.7248" y="-805.4" font-family="Times,serif" font-size="14.00" fill="#000000">hasProperty</text>
<text text-anchor="start" x="202.7248" y="-785.4" font-family="Times,serif" font-size="14.00" fill="#000000">hasSpatialDirectPart</text>
<text text-anchor="start" x="271.7248" y="-765.4" font-family="Times,serif" font-size="14.00" fill="#000000">hasType</text>
</g>
<!-- key2 -->
<g id="node25" class="node">
<title>key2</title>
<text text-anchor="start" x="479.5296" y="-825.4" font-family="Times,serif" font-size="14.00" fill="#000000"> </text>
<text text-anchor="start" x="479.5296" y="-805.4" font-family="Times,serif" font-size="14.00" fill="#000000"> </text>
<text text-anchor="start" x="479.5296" y="-785.4" font-family="Times,serif" font-size="14.00" fill="#000000"> </text>
<text text-anchor="start" x="479.5296" y="-765.4" font-family="Times,serif" font-size="14.00" fill="#000000"> </text>
</g>
<!-- key2&#45;&gt;key1 -->
<g id="edge26" class="edge">
<title>key2:w&#45;&gt;key1:e</title>
<path fill="none" stroke="#000000" d="M477.5296,-830C411.3776,-830 392.3201,-830 330.9512,-830"/>
<polygon fill="none" stroke="#000000" points="330.7249,-826.5001 320.7248,-830 330.7248,-833.5001 330.7249,-826.5001"/>
</g>
<!-- key2&#45;&gt;key1 -->
<g id="edge27" class="edge">
<title>key2:w&#45;&gt;key1:e</title>
<path fill="none" stroke="#ffa500" stroke-dasharray="1,5" d="M477.5296,-810C411.3776,-810 392.3201,-810 330.9512,-810"/>
<polygon fill="#ffa500" stroke="#ffa500" points="330.7249,-806.5001 320.7248,-810 330.7248,-813.5001 330.7249,-806.5001"/>
</g>
<!-- key2&#45;&gt;key1 -->
<g id="edge28" class="edge">
<title>key2:w&#45;&gt;key1:e</title>
<path fill="none" stroke="#006400" d="M477.5296,-790C411.3776,-790 392.3201,-790 330.9512,-790"/>
<polygon fill="#006400" stroke="#006400" points="330.7249,-786.5001 320.7248,-790 330.7248,-793.5001 330.7249,-786.5001"/>
</g>
<!-- key2&#45;&gt;key1 -->
<g id="edge29" class="edge">
<title>key2:w&#45;&gt;key1:e</title>
<path fill="none" stroke="#ffa500" stroke-dasharray="5,2" d="M477.5296,-770C411.3776,-770 392.3201,-770 330.9512,-770"/>
<polygon fill="#ffa500" stroke="#ffa500" points="330.7249,-766.5001 320.7248,-770 330.7248,-773.5001 330.7249,-766.5001"/>
</g>
</g>
</svg>
