<?xml version="1.0" encoding="UTF-8" standalone="no"?>
<!DOCTYPE svg PUBLIC "-//W3C//DTD SVG 1.1//EN"
 "http://www.w3.org/Graphics/SVG/1.1/DTD/svg11.dtd">
<!-- Generated by graphviz version 2.40.1 (20161225.0304)
 -->
<!-- Title: %3 Pages: 1 -->
<svg width="1437pt" height="344pt"
 viewBox="0.00 0.00 1437.09 344.00" xmlns="http://www.w3.org/2000/svg" xmlns:xlink="http://www.w3.org/1999/xlink">
<g id="graph0" class="graph" transform="scale(1 1) rotate(0) translate(4 340)">
<title>%3</title>
<polygon fill="#ffffff" stroke="transparent" points="-4,4 -4,-340 1433.0945,-340 1433.0945,4 -4,4"/>
<!-- Nucleus -->
<g id="node1" class="node">
<title>Nucleus</title>
<g id="a_node1"><a xlink:href="http://emmo.info/emmo/middle/materials#EMMO_f835f4d4_c665_403d_ab25_dca5cc74be52" xlink:title="Nucleus">
<ellipse fill="#ffffcc" stroke="#000000" cx="648.0945" cy="-102" rx="42.0247" ry="18"/>
<text text-anchor="middle" x="648.0945" y="-97.4" font-family="Times,serif" font-size="14.00" fill="#000000">Nucleus</text>
</a>
</g>
</g>
<!-- Subatomic -->
<g id="node7" class="node">
<title>Subatomic</title>
<g id="a_node7"><a xlink:href="http://emmo.info/emmo/middle/materials#EMMO_7d66bde4_b68d_41cc_b5fc_6fd98c5e2ff0" xlink:title="Subatomic">
<ellipse fill="#ffffcc" stroke="#000000" cx="642.0945" cy="-174" rx="50.9647" ry="18"/>
<text text-anchor="middle" x="642.0945" y="-169.4" font-family="Times,serif" font-size="14.00" fill="#000000">Subatomic</text>
</a>
</g>
</g>
<!-- Nucleus&#45;&gt;Subatomic -->
<g id="edge4" class="edge">
<title>Nucleus&#45;&gt;Subatomic</title>
<path fill="none" stroke="#000000" d="M646.5804,-120.1686C645.9387,-127.869 645.1757,-137.0257 644.4626,-145.5834"/>
<polygon fill="none" stroke="#000000" points="640.9716,-145.3306 643.6289,-155.5867 647.9474,-145.912 640.9716,-145.3306"/>
</g>
<!-- Nucleon -->
<g id="node8" class="node">
<title>Nucleon</title>
<g id="a_node8"><a xlink:href="http://emmo.info/emmo/middle/materials#EMMO_50781fd9_a9e4_46ad_b7be_4500371d188d" xlink:title="Nucleon">
<ellipse fill="#ffffcc" stroke="#000000" cx="545.0945" cy="-102" rx="42.8651" ry="18"/>
<text text-anchor="middle" x="545.0945" y="-97.4" font-family="Times,serif" font-size="14.00" fill="#000000">Nucleon</text>
</a>
</g>
</g>
<!-- Nucleus&#45;&gt;Nucleon -->
<g id="edge5" class="edge">
<title>Nucleus&#45;&gt;Nucleon</title>
<path fill="none" stroke="#006400" d="M605.4744,-102C603.0375,-102 600.6006,-102 598.1637,-102"/>
<polygon fill="#006400" stroke="#006400" points="598.1453,-98.5001 588.1453,-102 598.1452,-105.5001 598.1453,-98.5001"/>
</g>
<!-- StandaloneAtom -->
<g id="node2" class="node">
<title>StandaloneAtom</title>
<g id="a_node2"><a xlink:href="http://emmo.info/emmo/middle/materials#EMMO_2fd3f574_5e93_47fe_afca_ed80b0a21ab4" xlink:title="StandaloneAtom">
<ellipse fill="#ffffcc" stroke="#000000" cx="410.0945" cy="-102" rx="73.5811" ry="18"/>
<text text-anchor="middle" x="410.0945" y="-97.4" font-family="Times,serif" font-size="14.00" fill="#000000">StandaloneAtom</text>
</a>
</g>
</g>
<!-- Atom -->
<g id="node18" class="node">
<title>Atom</title>
<g id="a_node18"><a xlink:href="http://emmo.info/emmo/middle/materials#EMMO_eb77076b_a104_42ac_a065_798b2d2809ad" xlink:title="Atom">
<ellipse fill="#ffffcc" stroke="#000000" cx="410.0945" cy="-174" rx="32.7409" ry="18"/>
<text text-anchor="middle" x="410.0945" y="-169.4" font-family="Times,serif" font-size="14.00" fill="#000000">Atom</text>
</a>
</g>
</g>
<!-- StandaloneAtom&#45;&gt;Atom -->
<g id="edge25" class="edge">
<title>StandaloneAtom&#45;&gt;Atom</title>
<path fill="none" stroke="#000000" d="M410.0945,-120.1686C410.0945,-127.869 410.0945,-137.0257 410.0945,-145.5834"/>
<polygon fill="none" stroke="#000000" points="406.5946,-145.5867 410.0945,-155.5867 413.5946,-145.5868 406.5946,-145.5867"/>
</g>
<!-- Fluid -->
<g id="node3" class="node">
<title>Fluid</title>
<g id="a_node3"><a xlink:href="http://emmo.info/emmo/middle/materials#EMMO_87ac88ff_8379_4f5a_8c7b_424a8fff1ee8" xlink:title="Fluid">
<ellipse fill="#ffffcc" stroke="#000000" cx="1245.0945" cy="-102" rx="30.7161" ry="18"/>
<text text-anchor="middle" x="1245.0945" y="-97.4" font-family="Times,serif" font-size="14.00" fill="#000000">Fluid</text>
</a>
</g>
</g>
<!-- Continuum -->
<g id="node20" class="node">
<title>Continuum</title>
<g id="a_node20"><a xlink:href="http://emmo.info/emmo/middle/materials#EMMO_8b0923ab_b500_477b_9ce9_8b3a3e4dc4f2" xlink:title="Continuum">
<ellipse fill="#ffffcc" stroke="#000000" cx="1043.0945" cy="-174" rx="52.9896" ry="18"/>
<text text-anchor="middle" x="1043.0945" y="-169.4" font-family="Times,serif" font-size="14.00" fill="#000000">Continuum</text>
</a>
</g>
</g>
<!-- Fluid&#45;&gt;Continuum -->
<g id="edge13" class="edge">
<title>Fluid&#45;&gt;Continuum</title>
<path fill="none" stroke="#000000" d="M1220.7222,-113.4384C1215.6003,-115.7091 1210.2018,-118.0055 1205.0945,-120 1167.8051,-134.562 1124.7818,-148.786 1092.4482,-158.9771"/>
<polygon fill="none" stroke="#000000" points="1091.272,-155.6777 1082.7749,-162.0063 1093.3639,-162.3579 1091.272,-155.6777"/>
</g>
<!-- Neutron -->
<g id="node4" class="node">
<title>Neutron</title>
<g id="a_node4"><a xlink:href="http://emmo.info/emmo/middle/materials#EMMO_df808271_df91_4f27_ba59_fa423c51896c" xlink:title="Neutron">
<ellipse fill="#ffffcc" stroke="#000000" cx="538.0945" cy="-24" rx="42.0247" ry="18"/>
<text text-anchor="middle" x="538.0945" y="-19.4" font-family="Times,serif" font-size="14.00" fill="#000000">Neutron</text>
</a>
</g>
</g>
<!-- Neutron&#45;&gt;Nucleon -->
<g id="edge21" class="edge">
<title>Neutron&#45;&gt;Nucleon</title>
<path fill="none" stroke="#000000" d="M539.718,-42.0908C540.5662,-51.5416 541.6231,-63.3182 542.5748,-73.9229"/>
<polygon fill="none" stroke="#000000" points="539.0998,-74.3602 543.4798,-84.0073 546.0718,-73.7344 539.0998,-74.3602"/>
</g>
<!-- ElectronCloud -->
<g id="node5" class="node">
<title>ElectronCloud</title>
<g id="a_node5"><a xlink:href="http://emmo.info/emmo/middle/materials#EMMO_1067b97a_84f8_4d22_8ace_b842b8ce355c" xlink:title="ElectronCloud">
<ellipse fill="#ffffcc" stroke="#000000" cx="774.0945" cy="-102" rx="65.9817" ry="18"/>
<text text-anchor="middle" x="774.0945" y="-97.4" font-family="Times,serif" font-size="14.00" fill="#000000">ElectronCloud</text>
</a>
</g>
</g>
<!-- ElectronCloud&#45;&gt;Subatomic -->
<g id="edge17" class="edge">
<title>ElectronCloud&#45;&gt;Subatomic</title>
<path fill="none" stroke="#000000" d="M744.4711,-118.1582C725.0044,-128.7764 699.3977,-142.7437 678.6639,-154.0531"/>
<polygon fill="none" stroke="#000000" points="676.918,-151.0185 669.815,-158.8797 680.27,-157.1638 676.918,-151.0185"/>
</g>
<!-- Proton -->
<g id="node6" class="node">
<title>Proton</title>
<g id="a_node6"><a xlink:href="http://emmo.info/emmo/middle/materials#EMMO_8f87e700_99a8_4427_8ffb_e493de05c217" xlink:title="Proton">
<ellipse fill="#ffffcc" stroke="#000000" cx="634.0945" cy="-24" rx="35.607" ry="18"/>
<text text-anchor="middle" x="634.0945" y="-19.4" font-family="Times,serif" font-size="14.00" fill="#000000">Proton</text>
</a>
</g>
</g>
<!-- Proton&#45;&gt;Nucleon -->
<g id="edge26" class="edge">
<title>Proton&#45;&gt;Nucleon</title>
<path fill="none" stroke="#000000" d="M616.084,-39.7845C603.227,-51.0524 585.7316,-66.3854 571.3266,-79.0101"/>
<polygon fill="none" stroke="#000000" points="568.9045,-76.4788 563.6909,-85.7021 573.5183,-81.7432 568.9045,-76.4788"/>
</g>
<!-- MaterialState -->
<g id="node16" class="node">
<title>MaterialState</title>
<g id="a_node16"><a xlink:href="http://emmo.info/emmo/middle/materials#EMMO_20fff605_465f_4034_8696_e53e90ec83f4" xlink:title="MaterialState">
<ellipse fill="#ffc880" stroke="#000000" cx="520.0945" cy="-246" rx="62.2728" ry="18"/>
<text text-anchor="middle" x="520.0945" y="-241.4" font-family="Times,serif" font-size="14.00" fill="#000000">MaterialState</text>
</a>
</g>
</g>
<!-- Subatomic&#45;&gt;MaterialState -->
<g id="edge6" class="edge">
<title>Subatomic&#45;&gt;MaterialState</title>
<path fill="none" stroke="#000000" d="M615.6223,-189.6229C598.3196,-199.8344 575.4904,-213.3073 556.4883,-224.5217"/>
<polygon fill="none" stroke="#000000" points="554.6185,-221.5611 547.7853,-229.6579 558.1763,-227.5895 554.6185,-221.5611"/>
</g>
<!-- Nucleon&#45;&gt;Subatomic -->
<g id="edge12" class="edge">
<title>Nucleon&#45;&gt;Subatomic</title>
<path fill="none" stroke="#000000" d="M566.6219,-117.9791C579.8726,-127.8147 597.0619,-140.5737 611.6883,-151.4304"/>
<polygon fill="none" stroke="#000000" points="609.8389,-154.4165 619.9547,-157.5664 614.0111,-148.7957 609.8389,-154.4165"/>
</g>
<!-- Boundary -->
<g id="node9" class="node">
<title>Boundary</title>
<g id="a_node9"><a xlink:href="http://www.emmc.info/emmc-csa/demo#DEMO_2c2daad3-ce71-49ea-891e-e468c873b3e9" xlink:title="Boundary">
<ellipse fill="#ffc880" stroke="#000000" cx="907.0945" cy="-102" rx="48.9398" ry="18"/>
<text text-anchor="middle" x="907.0945" y="-97.4" font-family="Times,serif" font-size="14.00" fill="#000000">Boundary</text>
</a>
</g>
</g>
<!-- Boundary&#45;&gt;Continuum -->
<g id="edge20" class="edge">
<title>Boundary&#45;&gt;Continuum</title>
<path fill="none" stroke="#000000" d="M935.2738,-116.9184C955.4248,-127.5866 982.7793,-142.0684 1004.8929,-153.7756"/>
<polygon fill="none" stroke="#000000" points="1003.5374,-157.0182 1014.013,-158.6039 1006.8127,-150.8317 1003.5374,-157.0182"/>
</g>
<!-- Molecule -->
<g id="node10" class="node">
<title>Molecule</title>
<g id="a_node10"><a xlink:href="http://emmo.info/emmo/middle/materials#EMMO_3397f270_dfc1_4500_8f6f_4d0d85ac5f71" xlink:title="Molecule">
<ellipse fill="#ffffcc" stroke="#000000" cx="520.0945" cy="-174" rx="46.9149" ry="18"/>
<text text-anchor="middle" x="520.0945" y="-169.4" font-family="Times,serif" font-size="14.00" fill="#000000">Molecule</text>
</a>
</g>
</g>
<!-- Molecule&#45;&gt;MaterialState -->
<g id="edge27" class="edge">
<title>Molecule&#45;&gt;MaterialState</title>
<path fill="none" stroke="#000000" d="M520.0945,-192.1686C520.0945,-199.869 520.0945,-209.0257 520.0945,-217.5834"/>
<polygon fill="none" stroke="#000000" points="516.5946,-217.5867 520.0945,-227.5867 523.5946,-217.5868 516.5946,-217.5867"/>
</g>
<!-- InterfaceModel -->
<g id="node11" class="node">
<title>InterfaceModel</title>
<g id="a_node11"><a xlink:href="http://www.emmc.info/emmc-csa/demo#DEMO_8b4dccdf-dadc-4f4e-99c5-1c09339bf051" xlink:title="InterfaceModel">
<ellipse fill="#ffffcc" stroke="#000000" cx="69.0945" cy="-102" rx="69.1891" ry="18"/>
<text text-anchor="middle" x="69.0945" y="-97.4" font-family="Times,serif" font-size="14.00" fill="#000000">InterfaceModel</text>
</a>
</g>
</g>
<!-- CrystalUnitCell -->
<g id="node14" class="node">
<title>CrystalUnitCell</title>
<g id="a_node14"><a xlink:href="http://www.emmc.info/emmc-csa/demo#DEMO_a35f6f10-a2a3-4e30-aa02-88fd53c7773e" xlink:title="CrystalUnitCell">
<ellipse fill="#ffffcc" stroke="#000000" cx="254.0945" cy="-174" rx="69.5314" ry="18"/>
<text text-anchor="middle" x="254.0945" y="-169.4" font-family="Times,serif" font-size="14.00" fill="#000000">CrystalUnitCell</text>
</a>
</g>
</g>
<!-- InterfaceModel&#45;&gt;CrystalUnitCell -->
<g id="edge15" class="edge">
<title>InterfaceModel&#45;&gt;CrystalUnitCell</title>
<path fill="none" stroke="#000000" d="M107.8766,-117.0936C136.3672,-128.1818 175.2625,-143.3194 205.7752,-155.1946"/>
<polygon fill="none" stroke="#000000" points="204.775,-158.561 215.3635,-158.9263 207.3138,-152.0377 204.775,-158.561"/>
</g>
<!-- Crystal -->
<g id="node12" class="node">
<title>Crystal</title>
<g id="a_node12"><a xlink:href="http://www.emmc.info/emmc-csa/demo#DEMO_7c655f93-d224-4a1c-bd5b-26bb295bd08c" xlink:title="Crystal">
<ellipse fill="#ffffcc" stroke="#000000" cx="1165.0945" cy="-24" rx="38.475" ry="18"/>
<text text-anchor="middle" x="1165.0945" y="-19.4" font-family="Times,serif" font-size="14.00" fill="#000000">Crystal</text>
</a>
</g>
</g>
<!-- Crystal&#45;&gt;CrystalUnitCell -->
<g id="edge8" class="edge">
<title>Crystal&#45;&gt;CrystalUnitCell</title>
<path fill="none" stroke="#006400" d="M1126.8449,-25.8906C967.497,-33.8753 363.0091,-65.2844 327.0945,-84 313.0318,-91.3283 288.6074,-123.7584 271.9149,-147.5969"/>
<polygon fill="#006400" stroke="#006400" points="268.9617,-145.7138 266.1484,-155.9283 274.7175,-149.6977 268.9617,-145.7138"/>
</g>
<!-- Solid -->
<g id="node15" class="node">
<title>Solid</title>
<g id="a_node15"><a xlink:href="http://emmo.info/emmo/middle/materials#EMMO_a2b006f2_bbfd_4dba_bcaa_3fca20cd6be1" xlink:title="Solid">
<ellipse fill="#ffffcc" stroke="#000000" cx="1165.0945" cy="-102" rx="30.7161" ry="18"/>
<text text-anchor="middle" x="1165.0945" y="-97.4" font-family="Times,serif" font-size="14.00" fill="#000000">Solid</text>
</a>
</g>
</g>
<!-- Crystal&#45;&gt;Solid -->
<g id="edge7" class="edge">
<title>Crystal&#45;&gt;Solid</title>
<path fill="none" stroke="#000000" d="M1165.0945,-42.0908C1165.0945,-51.4741 1165.0945,-63.1501 1165.0945,-73.6954"/>
<polygon fill="none" stroke="#000000" points="1161.5946,-73.7371 1165.0945,-83.7371 1168.5946,-73.7371 1161.5946,-73.7371"/>
</g>
<!-- IonAtom -->
<g id="node13" class="node">
<title>IonAtom</title>
<g id="a_node13"><a xlink:href="http://emmo.info/emmo/middle/materials#EMMO_db03061b_db31_4132_a47a_6a634846578b" xlink:title="IonAtom">
<ellipse fill="#ffffcc" stroke="#000000" cx="289.0945" cy="-24" rx="44.89" ry="18"/>
<text text-anchor="middle" x="289.0945" y="-19.4" font-family="Times,serif" font-size="14.00" fill="#000000">IonAtom</text>
</a>
</g>
</g>
<!-- IonAtom&#45;&gt;StandaloneAtom -->
<g id="edge22" class="edge">
<title>IonAtom&#45;&gt;StandaloneAtom</title>
<path fill="none" stroke="#000000" d="M313.0002,-39.4103C330.7587,-50.8579 355.2553,-66.6491 375.1996,-79.5057"/>
<polygon fill="none" stroke="#000000" points="373.4167,-82.5206 383.7181,-84.997 377.2094,-76.6371 373.4167,-82.5206"/>
</g>
<!-- CrystalUnitCell&#45;&gt;MaterialState -->
<g id="edge9" class="edge">
<title>CrystalUnitCell&#45;&gt;MaterialState</title>
<path fill="none" stroke="#000000" d="M302.2651,-187.0387C347.9707,-199.4101 416.6155,-217.9907 464.5945,-230.9774"/>
<polygon fill="none" stroke="#000000" points="463.9362,-234.4251 474.5033,-233.6595 465.7652,-227.6683 463.9362,-234.4251"/>
</g>
<!-- BondedAtom -->
<g id="node19" class="node">
<title>BondedAtom</title>
<g id="a_node19"><a xlink:href="http://emmo.info/emmo/middle/materials#EMMO_8303a247_f9d9_4616_bdcd_f5cbd7b298e3" xlink:title="BondedAtom">
<ellipse fill="#ffffcc" stroke="#000000" cx="218.0945" cy="-102" rx="62.2728" ry="18"/>
<text text-anchor="middle" x="218.0945" y="-97.4" font-family="Times,serif" font-size="14.00" fill="#000000">BondedAtom</text>
</a>
</g>
</g>
<!-- CrystalUnitCell&#45;&gt;BondedAtom -->
<g id="edge10" class="edge">
<title>CrystalUnitCell&#45;&gt;BondedAtom</title>
<path fill="none" stroke="#006400" d="M245.1378,-156.0866C241.0737,-147.9585 236.1788,-138.1686 231.6768,-129.1646"/>
<polygon fill="#006400" stroke="#006400" points="234.7815,-127.5477 227.1788,-120.1686 228.5205,-130.6782 234.7815,-127.5477"/>
</g>
<!-- Solid&#45;&gt;Continuum -->
<g id="edge23" class="edge">
<title>Solid&#45;&gt;Continuum</title>
<path fill="none" stroke="#000000" d="M1143.2833,-114.8722C1125.2921,-125.4899 1099.4136,-140.7625 1078.4645,-153.1259"/>
<polygon fill="none" stroke="#000000" points="1076.6587,-150.1275 1069.8255,-158.2243 1080.2165,-156.156 1076.6587,-150.1275"/>
</g>
<!-- Material -->
<g id="node21" class="node">
<title>Material</title>
<g id="a_node21"><a xlink:href="http://emmo.info/emmo/middle/physicalistic#EMMO_4207e895_8b83_4318_996a_72cfb32acd94" xlink:title="Material">
<ellipse fill="#ffffcc" stroke="#000000" stroke-width="2" cx="520.0945" cy="-318" rx="43.7069" ry="18"/>
<text text-anchor="middle" x="520.0945" y="-313.4" font-family="Times,serif" font-size="14.00" fill="#000000">Material</text>
</a>
</g>
</g>
<!-- MaterialState&#45;&gt;Material -->
<g id="edge18" class="edge">
<title>MaterialState&#45;&gt;Material</title>
<path fill="none" stroke="#000000" d="M520.0945,-264.1686C520.0945,-271.869 520.0945,-281.0257 520.0945,-289.5834"/>
<polygon fill="none" stroke="#000000" points="516.5946,-289.5867 520.0945,-299.5867 523.5946,-289.5868 516.5946,-289.5867"/>
</g>
<!-- NeutralAtom -->
<g id="node17" class="node">
<title>NeutralAtom</title>
<g id="a_node17"><a xlink:href="http://emmo.info/emmo/middle/materials#EMMO_4588526f_8553_4f4d_aa73_a483e88d599b" xlink:title="NeutralAtom">
<ellipse fill="#ffffcc" stroke="#000000" cx="413.0945" cy="-24" rx="61.0893" ry="18"/>
<text text-anchor="middle" x="413.0945" y="-19.4" font-family="Times,serif" font-size="14.00" fill="#000000">NeutralAtom</text>
</a>
</g>
</g>
<!-- NeutralAtom&#45;&gt;StandaloneAtom -->
<g id="edge24" class="edge">
<title>NeutralAtom&#45;&gt;StandaloneAtom</title>
<path fill="none" stroke="#000000" d="M412.3987,-42.0908C412.0378,-51.4741 411.5887,-63.1501 411.1831,-73.6954"/>
<polygon fill="none" stroke="#000000" points="407.6839,-73.6099 410.7969,-83.7371 414.6788,-73.879 407.6839,-73.6099"/>
</g>
<!-- Atom&#45;&gt;Nucleus -->
<g id="edge3" class="edge">
<title>Atom&#45;&gt;Nucleus</title>
<path fill="none" stroke="#006400" d="M438.0241,-164.3507C446.3777,-161.5566 455.5798,-158.5692 464.0945,-156 522.7221,-138.3101 538.6244,-138.2034 597.0945,-120 600.0474,-119.0807 603.0846,-118.1 606.1357,-117.0889"/>
<polygon fill="#006400" stroke="#006400" points="607.4972,-120.3229 615.8412,-113.7939 605.2469,-113.6945 607.4972,-120.3229"/>
</g>
<!-- Atom&#45;&gt;ElectronCloud -->
<g id="edge2" class="edge">
<title>Atom&#45;&gt;ElectronCloud</title>
<path fill="none" stroke="#006400" d="M437.5811,-163.8364C446.0027,-160.9948 455.3529,-158.1103 464.0945,-156 566.8067,-131.204 595.4092,-140.3472 699.0945,-120 704.4326,-118.9525 709.9652,-117.7841 715.4962,-116.5596"/>
<polygon fill="#006400" stroke="#006400" points="716.431,-119.9365 725.4077,-114.309 714.8809,-113.1103 716.431,-119.9365"/>
</g>
<!-- Atom&#45;&gt;MaterialState -->
<g id="edge1" class="edge">
<title>Atom&#45;&gt;MaterialState</title>
<path fill="none" stroke="#000000" d="M431.3036,-187.8823C446.8626,-198.0664 468.312,-212.106 486.2311,-223.8349"/>
<polygon fill="none" stroke="#000000" points="484.419,-226.8319 494.7029,-229.38 488.2527,-220.9749 484.419,-226.8319"/>
</g>
<!-- BondedAtom&#45;&gt;Atom -->
<g id="edge16" class="edge">
<title>BondedAtom&#45;&gt;Atom</title>
<path fill="none" stroke="#000000" d="M256.4871,-116.3972C290.5512,-129.1713 339.9712,-147.7038 373.4853,-160.2716"/>
<polygon fill="none" stroke="#000000" points="372.3228,-163.5736 382.915,-163.8077 374.7807,-157.0193 372.3228,-163.5736"/>
</g>
<!-- Continuum&#45;&gt;MaterialState -->
<g id="edge19" class="edge">
<title>Continuum&#45;&gt;MaterialState</title>
<path fill="none" stroke="#000000" d="M993.8919,-180.7736C899.5445,-193.7621 693.1252,-222.1793 586.6107,-236.8429"/>
<polygon fill="none" stroke="#000000" points="586.0511,-233.3868 576.6219,-238.218 587.0058,-240.3214 586.0511,-233.3868"/>
</g>
<!-- RVE -->
<g id="node22" class="node">
<title>RVE</title>
<g id="a_node22"><a xlink:href="http://www.emmc.info/emmc-csa/demo#DEMO_9510f8ac-7924-4298-b955-602b32c8abdf" xlink:title="RVE">
<ellipse fill="#ffffcc" stroke="#000000" cx="1003.0945" cy="-102" rx="29.5322" ry="18"/>
<text text-anchor="middle" x="1003.0945" y="-97.4" font-family="Times,serif" font-size="14.00" fill="#000000">RVE</text>
</a>
</g>
</g>
<!-- RVE&#45;&gt;Continuum -->
<g id="edge11" class="edge">
<title>RVE&#45;&gt;Continuum</title>
<path fill="none" stroke="#000000" d="M1012.5739,-119.063C1017.2522,-127.4839 1023.0041,-137.8373 1028.2486,-147.2774"/>
<polygon fill="none" stroke="#000000" points="1025.3493,-149.2658 1033.2654,-156.3076 1031.4685,-145.8662 1025.3493,-149.2658"/>
</g>
<!-- Phase -->
<g id="node23" class="node">
<title>Phase</title>
<g id="a_node23"><a xlink:href="http://www.emmc.info/emmc-csa/demo#DEMO_3310da2f-ea1a-429a-862c-75c5efa640e8" xlink:title="Phase">
<ellipse fill="#ffffcc" stroke="#000000" cx="1083.0945" cy="-102" rx="32.7409" ry="18"/>
<text text-anchor="middle" x="1083.0945" y="-97.4" font-family="Times,serif" font-size="14.00" fill="#000000">Phase</text>
</a>
</g>
</g>
<!-- Phase&#45;&gt;Continuum -->
<g id="edge14" class="edge">
<title>Phase&#45;&gt;Continuum</title>
<path fill="none" stroke="#000000" d="M1073.4116,-119.4292C1068.7642,-127.7945 1063.0934,-138.002 1057.9189,-147.3161"/>
<polygon fill="none" stroke="#000000" points="1054.763,-145.7898 1052.9661,-156.2311 1060.8821,-149.1893 1054.763,-145.7898"/>
</g>
<!-- key1 -->
<g id="node24" class="node">
<title>key1</title>
<text text-anchor="start" x="1326.0945" y="-29.4" font-family="Times,serif" font-size="14.00" fill="#000000">isA</text>
<text text-anchor="start" x="1231.0945" y="-9.4" font-family="Times,serif" font-size="14.00" fill="#000000">hasSpatialDirectPart</text>
</g>
<!-- key2 -->
<g id="node25" class="node">
<title>key2</title>
<text text-anchor="start" x="1401.0945" y="-29.4" font-family="Times,serif" font-size="14.00" fill="#000000"> </text>
<text text-anchor="start" x="1401.0945" y="-9.4" font-family="Times,serif" font-size="14.00" fill="#000000"> </text>
</g>
<!-- key1&#45;&gt;key2 -->
<g id="edge28" class="edge">
<title>key1:e&#45;&gt;key2:w</title>
<path fill="none" stroke="#006400" d="M1349.0945,-14C1367.4973,-14 1374.4702,-14 1388.944,-14"/>
<polygon fill="#006400" stroke="#006400" points="1389.0945,-17.5001 1399.0945,-14 1389.0945,-10.5001 1389.0945,-17.5001"/>
</g>
<!-- key1&#45;&gt;key2 -->
<g id="edge29" class="edge">
<title>key1:e&#45;&gt;key2:w</title>
<path fill="none" stroke="#000000" d="M1349.0945,-34C1367.4973,-34 1374.4702,-34 1388.944,-34"/>
<polygon fill="none" stroke="#000000" points="1389.0945,-37.5001 1399.0945,-34 1389.0945,-30.5001 1389.0945,-37.5001"/>
</g>
</g>
</svg>
