<?xml version="1.0" encoding="UTF-8" standalone="no"?>
<!DOCTYPE svg PUBLIC "-//W3C//DTD SVG 1.1//EN"
 "http://www.w3.org/Graphics/SVG/1.1/DTD/svg11.dtd">
<!-- Generated by graphviz version 2.40.1 (20161225.0304)
 -->
<!-- Title: %3 Pages: 1 -->
<svg width="482pt" height="562pt"
 viewBox="0.00 0.00 482.49 562.00" xmlns="http://www.w3.org/2000/svg" xmlns:xlink="http://www.w3.org/1999/xlink">
<g id="graph0" class="graph" transform="scale(1 1) rotate(0) translate(4 558)">
<title>%3</title>
<polygon fill="#ffffff" stroke="transparent" points="-4,4 -4,-558 478.4922,-558 478.4922,4 -4,4"/>
<!-- Crystal -->
<g id="node1" class="node">
<title>Crystal</title>
<g id="a_node1"><a xlink:href="http://www.emmc.info/emmc-csa/demo#DEMO_7c655f93-d224-4a1c-bd5b-26bb295bd08c" xlink:title="Crystal">
<ellipse fill="#ffffcc" stroke="#000000" cx="405.3977" cy="-450" rx="38.475" ry="18"/>
<text text-anchor="middle" x="405.3977" y="-445.4" font-family="Times,serif" font-size="14.00" fill="#000000">Crystal</text>
</a>
</g>
</g>
<!-- CrystalUnitCell -->
<g id="node2" class="node">
<title>CrystalUnitCell</title>
<g id="a_node2"><a xlink:href="http://www.emmc.info/emmc-csa/demo#DEMO_a35f6f10-a2a3-4e30-aa02-88fd53c7773e" xlink:title="CrystalUnitCell">
<ellipse fill="#ffffcc" stroke="#000000" cx="230.5379" cy="-18" rx="69.5314" ry="18"/>
<text text-anchor="middle" x="230.5379" y="-13.4" font-family="Times,serif" font-size="14.00" fill="#000000">CrystalUnitCell</text>
</a>
</g>
</g>
<!-- Crystal&#45;&gt;CrystalUnitCell -->
<g id="edge11" class="edge">
<title>Crystal&#45;&gt;CrystalUnitCell</title>
<path fill="none" stroke="#006400" d="M369.2739,-443.6622C357.0298,-439.7194 344.4135,-433.334 336.3032,-423 261.5616,-327.7651 336.6304,-268.4831 300.3032,-153 287.7689,-113.1536 264.0523,-70.9553 247.7802,-44.5566"/>
<polygon fill="#006400" stroke="#006400" points="250.6386,-42.5264 242.3656,-35.9077 244.7054,-46.2409 250.6386,-42.5264"/>
</g>
<!-- Solid -->
<g id="node13" class="node">
<title>Solid</title>
<g id="a_node13"><a xlink:href="http://emmo.info/emmo/middle/materials#EMMO_a2b006f2_bbfd_4dba_bcaa_3fca20cd6be1" xlink:title="Solid">
<ellipse fill="#ffffcc" stroke="#ff0000" cx="230.5379" cy="-450" rx="30.7161" ry="18"/>
<text text-anchor="middle" x="230.5379" y="-445.4" font-family="Times,serif" font-size="14.00" fill="#000000">Solid</text>
</a>
</g>
</g>
<!-- Crystal&#45;&gt;Solid -->
<g id="edge10" class="edge">
<title>Crystal&#45;&gt;Solid</title>
<path fill="none" stroke="#000000" d="M367.024,-450C338.8198,-450 300.5454,-450 271.7046,-450"/>
<polygon fill="none" stroke="#000000" points="271.5421,-446.5001 261.5421,-450 271.542,-453.5001 271.5421,-446.5001"/>
</g>
<!-- MaterialState -->
<g id="node7" class="node">
<title>MaterialState</title>
<g id="a_node7"><a xlink:href="http://emmo.info/emmo/middle/materials#EMMO_20fff605_465f_4034_8696_e53e90ec83f4" xlink:title="MaterialState">
<ellipse fill="#ffc880" stroke="#ff0000" cx="62.3863" cy="-18" rx="62.2728" ry="18"/>
<text text-anchor="middle" x="62.3863" y="-13.4" font-family="Times,serif" font-size="14.00" fill="#000000">MaterialState</text>
</a>
</g>
</g>
<!-- CrystalUnitCell&#45;&gt;MaterialState -->
<g id="edge1" class="edge">
<title>CrystalUnitCell&#45;&gt;MaterialState</title>
<path fill="none" stroke="#000000" d="M160.6873,-18C152.2836,-18 143.6847,-18 135.2395,-18"/>
<polygon fill="none" stroke="#000000" points="135.0381,-14.5001 125.038,-18 135.038,-21.5001 135.0381,-14.5001"/>
</g>
<!-- BondedAtom -->
<g id="node8" class="node">
<title>BondedAtom</title>
<g id="a_node8"><a xlink:href="http://emmo.info/emmo/middle/materials#EMMO_8303a247_f9d9_4616_bdcd_f5cbd7b298e3" xlink:title="BondedAtom">
<ellipse fill="#ffffcc" stroke="#ff0000" cx="405.3977" cy="-396" rx="62.2728" ry="18"/>
<text text-anchor="middle" x="405.3977" y="-391.4" font-family="Times,serif" font-size="14.00" fill="#000000">BondedAtom</text>
</a>
</g>
</g>
<!-- CrystalUnitCell&#45;&gt;BondedAtom -->
<g id="edge2" class="edge">
<title>CrystalUnitCell&#45;&gt;BondedAtom</title>
<path fill="none" stroke="#006400" d="M242.1587,-35.9746C257.8574,-61.1165 285.5669,-108.6898 300.3032,-153 331.0166,-245.3509 274.9771,-293.4282 336.3032,-369 339.6166,-373.083 343.6305,-376.5504 348.0372,-379.4947"/>
<polygon fill="#006400" stroke="#006400" points="346.491,-382.6416 356.915,-384.5363 349.9478,-376.5546 346.491,-382.6416"/>
</g>
<!-- LatticeVector -->
<g id="node9" class="node">
<title>LatticeVector</title>
<g id="a_node9"><a xlink:href="http://www.emmc.info/emmc-csa/demo#DEMO_82bfed1b-10f1-4abd-a687-2599b5fbe802" xlink:title="LatticeVector">
<ellipse fill="#ffffcc" stroke="#ff0000" cx="405.3977" cy="-342" rx="61.9317" ry="18"/>
<text text-anchor="middle" x="405.3977" y="-337.4" font-family="Times,serif" font-size="14.00" fill="#000000">LatticeVector</text>
</a>
</g>
</g>
<!-- CrystalUnitCell&#45;&gt;LatticeVector -->
<g id="edge3" class="edge">
<title>CrystalUnitCell&#45;&gt;LatticeVector</title>
<path fill="none" stroke="#ffa500" stroke-dasharray="1,5" d="M241.8215,-36.0918C257.1289,-61.3697 284.3866,-109.1 300.3032,-153 325.4434,-222.3395 288.3119,-258.9925 336.3032,-315 339.7757,-319.0525 343.9343,-322.5004 348.466,-325.4334"/>
<polygon fill="#ffa500" stroke="#ffa500" points="347.1134,-328.685 357.5581,-330.4625 350.5016,-322.5596 347.1134,-328.685"/>
</g>
<!-- StiffnessTensor -->
<g id="node10" class="node">
<title>StiffnessTensor</title>
<g id="a_node10"><a xlink:href="http://www.emmc.info/emmc-csa/demo#DEMO_daaa03d1-bc51-4227-b4ec-14551051d813" xlink:title="StiffnessTensor">
<ellipse fill="#ffffcc" stroke="#ff0000" cx="405.3977" cy="-288" rx="69.1891" ry="18"/>
<text text-anchor="middle" x="405.3977" y="-283.4" font-family="Times,serif" font-size="14.00" fill="#000000">StiffnessTensor</text>
</a>
</g>
</g>
<!-- CrystalUnitCell&#45;&gt;StiffnessTensor -->
<g id="edge4" class="edge">
<title>CrystalUnitCell&#45;&gt;StiffnessTensor</title>
<path fill="none" stroke="#ffa500" stroke-dasharray="1,5" d="M240.9357,-35.9115C255.4475,-61.3685 282.0435,-109.7352 300.3032,-153 319.9769,-199.6149 301.4458,-224.3263 336.3032,-261 339.6222,-264.4919 343.4464,-267.5398 347.5574,-270.1988"/>
<polygon fill="#ffa500" stroke="#ffa500" points="345.8961,-273.2801 356.3285,-275.1286 349.3259,-267.1779 345.8961,-273.2801"/>
</g>
<!-- Phase -->
<g id="node3" class="node">
<title>Phase</title>
<g id="a_node3"><a xlink:href="http://www.emmc.info/emmc-csa/demo#DEMO_3310da2f-ea1a-429a-862c-75c5efa640e8" xlink:title="Phase">
<ellipse fill="#ffffcc" stroke="#000000" cx="405.3977" cy="-234" rx="32.7409" ry="18"/>
<text text-anchor="middle" x="405.3977" y="-229.4" font-family="Times,serif" font-size="14.00" fill="#000000">Phase</text>
</a>
</g>
</g>
<!-- Phase&#45;&gt;StiffnessTensor -->
<g id="edge9" class="edge">
<title>Phase&#45;&gt;StiffnessTensor</title>
<path fill="none" stroke="#ffa500" stroke-dasharray="1,5" d="M405.3977,-252.1406C405.3977,-254.6226 405.3977,-257.1046 405.3977,-259.5865"/>
<polygon fill="#ffa500" stroke="#ffa500" points="401.8978,-259.7901 405.3977,-269.7902 408.8978,-259.7902 401.8978,-259.7901"/>
</g>
<!-- Continuum -->
<g id="node11" class="node">
<title>Continuum</title>
<g id="a_node11"><a xlink:href="http://emmo.info/emmo/middle/materials#EMMO_8b0923ab_b500_477b_9ce9_8b3a3e4dc4f2" xlink:title="Continuum">
<ellipse fill="#ffffcc" stroke="#ff0000" cx="230.5379" cy="-180" rx="52.9896" ry="18"/>
<text text-anchor="middle" x="230.5379" y="-175.4" font-family="Times,serif" font-size="14.00" fill="#000000">Continuum</text>
</a>
</g>
</g>
<!-- Phase&#45;&gt;Continuum -->
<g id="edge8" class="edge">
<title>Phase&#45;&gt;Continuum</title>
<path fill="none" stroke="#000000" d="M376.5232,-225.083C350.2644,-216.9738 310.9636,-204.837 279.7522,-195.1983"/>
<polygon fill="none" stroke="#000000" points="280.5173,-191.7715 269.9297,-192.1649 278.4517,-198.4599 280.5173,-191.7715"/>
</g>
<!-- RVE -->
<g id="node4" class="node">
<title>RVE</title>
<g id="a_node4"><a xlink:href="http://www.emmc.info/emmc-csa/demo#DEMO_9510f8ac-7924-4298-b955-602b32c8abdf" xlink:title="RVE">
<ellipse fill="#ffffcc" stroke="#000000" cx="405.3977" cy="-180" rx="29.5322" ry="18"/>
<text text-anchor="middle" x="405.3977" y="-175.4" font-family="Times,serif" font-size="14.00" fill="#000000">RVE</text>
</a>
</g>
</g>
<!-- RVE&#45;&gt;Continuum -->
<g id="edge5" class="edge">
<title>RVE&#45;&gt;Continuum</title>
<path fill="none" stroke="#000000" d="M375.7352,-180C353.3457,-180 321.8079,-180 293.8427,-180"/>
<polygon fill="none" stroke="#000000" points="293.725,-176.5001 283.725,-180 293.7249,-183.5001 293.725,-176.5001"/>
</g>
<!-- Boundary -->
<g id="node5" class="node">
<title>Boundary</title>
<g id="a_node5"><a xlink:href="http://www.emmc.info/emmc-csa/demo#DEMO_2c2daad3-ce71-49ea-891e-e468c873b3e9" xlink:title="Boundary">
<ellipse fill="#ffc880" stroke="#000000" cx="405.3977" cy="-126" rx="48.9398" ry="18"/>
<text text-anchor="middle" x="405.3977" y="-121.4" font-family="Times,serif" font-size="14.00" fill="#000000">Boundary</text>
</a>
</g>
</g>
<!-- Boundary&#45;&gt;Continuum -->
<g id="edge6" class="edge">
<title>Boundary&#45;&gt;Continuum</title>
<path fill="none" stroke="#000000" d="M367.8859,-137.5844C342.0331,-145.5682 307.4229,-156.2565 279.4138,-164.9062"/>
<polygon fill="none" stroke="#000000" points="278.3291,-161.578 269.8071,-167.8729 280.3946,-168.2663 278.3291,-161.578"/>
</g>
<!-- Area -->
<g id="node12" class="node">
<title>Area</title>
<g id="a_node12"><a xlink:href="http://www.emmc.info/emmc-csa/demo#DEMO_1e3308ee-4f45-493c-8a37-40e1afd9efb7" xlink:title="Area">
<ellipse fill="#ffffcc" stroke="#ff0000" cx="405.3977" cy="-72" rx="30.375" ry="18"/>
<text text-anchor="middle" x="405.3977" y="-67.4" font-family="Times,serif" font-size="14.00" fill="#000000">Area</text>
</a>
</g>
</g>
<!-- Boundary&#45;&gt;Area -->
<g id="edge7" class="edge">
<title>Boundary&#45;&gt;Area</title>
<path fill="none" stroke="#ffa500" stroke-dasharray="1,5" d="M405.3977,-107.7902C405.3977,-105.3082 405.3977,-102.8262 405.3977,-100.3443"/>
<polygon fill="#ffa500" stroke="#ffa500" points="408.8978,-100.1406 405.3977,-90.1406 401.8978,-100.1407 408.8978,-100.1406"/>
</g>
<!-- InterfaceModel -->
<g id="node6" class="node">
<title>InterfaceModel</title>
<g id="a_node6"><a xlink:href="http://www.emmc.info/emmc-csa/demo#DEMO_8b4dccdf-dadc-4f4e-99c5-1c09339bf051" xlink:title="InterfaceModel">
<ellipse fill="#ffffcc" stroke="#000000" cx="405.3977" cy="-18" rx="69.1891" ry="18"/>
<text text-anchor="middle" x="405.3977" y="-13.4" font-family="Times,serif" font-size="14.00" fill="#000000">InterfaceModel</text>
</a>
</g>
</g>
<!-- InterfaceModel&#45;&gt;CrystalUnitCell -->
<g id="edge12" class="edge">
<title>InterfaceModel&#45;&gt;CrystalUnitCell</title>
<path fill="none" stroke="#000000" d="M336.2885,-18C327.8491,-18 319.1713,-18 310.5889,-18"/>
<polygon fill="none" stroke="#000000" points="310.5779,-14.5001 300.5779,-18 310.5778,-21.5001 310.5779,-14.5001"/>
</g>
<!-- InterfaceModel&#45;&gt;Area -->
<g id="edge13" class="edge">
<title>InterfaceModel&#45;&gt;Area</title>
<path fill="none" stroke="#ffa500" stroke-dasharray="1,5" d="M405.3977,-36.1406C405.3977,-38.6226 405.3977,-41.1046 405.3977,-43.5865"/>
<polygon fill="#ffa500" stroke="#ffa500" points="401.8978,-43.7901 405.3977,-53.7902 408.8978,-43.7902 401.8978,-43.7901"/>
</g>
<!-- key1 -->
<g id="node14" class="node">
<title>key1</title>
<text text-anchor="start" x="267.5379" y="-535.4" font-family="Times,serif" font-size="14.00" fill="#000000">isA</text>
<text text-anchor="start" x="220.5379" y="-515.4" font-family="Times,serif" font-size="14.00" fill="#000000">hasProperty</text>
<text text-anchor="start" x="172.5379" y="-495.4" font-family="Times,serif" font-size="14.00" fill="#000000">hasSpatialDirectPart</text>
</g>
<!-- key2 -->
<g id="node15" class="node">
<title>key2</title>
<text text-anchor="start" x="404.3977" y="-535.4" font-family="Times,serif" font-size="14.00" fill="#000000"> </text>
<text text-anchor="start" x="404.3977" y="-515.4" font-family="Times,serif" font-size="14.00" fill="#000000"> </text>
<text text-anchor="start" x="404.3977" y="-495.4" font-family="Times,serif" font-size="14.00" fill="#000000"> </text>
</g>
<!-- key2&#45;&gt;key1 -->
<g id="edge14" class="edge">
<title>key2:w&#45;&gt;key1:e</title>
<path fill="none" stroke="#000000" d="M402.3977,-540C356.275,-540 342.2445,-540 300.76,-540"/>
<polygon fill="none" stroke="#000000" points="300.5379,-536.5001 290.5379,-540 300.5379,-543.5001 300.5379,-536.5001"/>
</g>
<!-- key2&#45;&gt;key1 -->
<g id="edge15" class="edge">
<title>key2:w&#45;&gt;key1:e</title>
<path fill="none" stroke="#ffa500" stroke-dasharray="1,5" d="M402.3977,-520C356.275,-520 342.2445,-520 300.76,-520"/>
<polygon fill="#ffa500" stroke="#ffa500" points="300.5379,-516.5001 290.5379,-520 300.5379,-523.5001 300.5379,-516.5001"/>
</g>
<!-- key2&#45;&gt;key1 -->
<g id="edge16" class="edge">
<title>key2:w&#45;&gt;key1:e</title>
<path fill="none" stroke="#006400" d="M402.3977,-500C356.275,-500 342.2445,-500 300.76,-500"/>
<polygon fill="#006400" stroke="#006400" points="300.5379,-496.5001 290.5379,-500 300.5379,-503.5001 300.5379,-496.5001"/>
</g>
</g>
</svg>
